<?xml version="1.0" encoding="utf-8"?>
<!-- Generator: Adobe Illustrator 24.0.0, SVG Export Plug-In . SVG Version: 6.00 Build 0)  -->
<svg version="1.1" id="Layer_1" xmlns="http://www.w3.org/2000/svg" xmlns:xlink="http://www.w3.org/1999/xlink" x="0px" y="0px"
	 viewBox="0 0 400 400" style="enable-background:new 0 0 400 400;" xml:space="preserve">
<style type="text/css">
	.st0{fill:#050505;stroke:#000000;stroke-miterlimit:10;}
	.st1{fill:#050505;}
	.st2{fill:#FFFFFF;}
	.st3{fill:none;stroke:#000000;stroke-width:0;stroke-linecap:round;stroke-linejoin:round;}
</style>
<g>
	<polygon class="st0" points="145.68,97.5 254.76,97.5 259,232 142.5,232 	"/>
	<g>
		<line class="st1" x1="278.96" y1="316.69" x2="171.04" y2="118.31"/>
		<g>
			<path d="M285.44,312.91c-0.96-1.77-1.93-3.54-2.89-5.31c-2.62-4.82-5.24-9.64-7.86-14.46c-3.86-7.1-7.72-14.19-11.58-21.29
				c-4.73-8.69-9.45-17.38-14.18-26.07c-5.18-9.52-10.36-19.04-15.54-28.56c-5.21-9.57-10.42-19.15-15.62-28.72
				c-4.88-8.96-9.75-17.92-14.62-26.88c-4.12-7.57-8.24-15.15-12.36-22.72c-2.96-5.44-5.92-10.89-8.88-16.33
				c-1.4-2.57-2.76-5.17-4.2-7.72c-0.06-0.11-0.12-0.22-0.18-0.33c-1.88-3.45-6.93-4.84-10.26-2.69c-3.5,2.26-4.7,6.57-2.69,10.26
				c0.96,1.77,1.93,3.54,2.89,5.31c2.62,4.82,5.24,9.64,7.86,14.46c3.86,7.1,7.72,14.19,11.58,21.29
				c4.73,8.69,9.45,17.38,14.18,26.07c5.18,9.52,10.36,19.04,15.54,28.56c5.21,9.57,10.42,19.15,15.62,28.72
				c4.88,8.96,9.75,17.92,14.62,26.88c4.12,7.57,8.24,15.15,12.36,22.72c2.96,5.44,5.92,10.89,8.88,16.33
				c1.4,2.57,2.76,5.17,4.2,7.72c0.06,0.11,0.12,0.22,0.18,0.33c1.88,3.45,6.93,4.84,10.26,2.69
				C286.25,320.91,287.45,316.6,285.44,312.91L285.44,312.91z"/>
		</g>
	</g>
	<g>
		<line class="st1" x1="132.5" y1="315.5" x2="222.47" y2="116.09"/>
		<g>
			<path d="M138.98,319.29c0.8-1.77,1.6-3.54,2.4-5.32c2.19-4.85,4.37-9.69,6.56-14.54c3.22-7.14,6.45-14.29,9.67-21.43
				c3.95-8.75,7.9-17.5,11.84-26.25c4.31-9.55,8.61-19.09,12.92-28.64c4.35-9.64,8.7-19.27,13.04-28.91
				c4.05-8.99,8.11-17.97,12.16-26.96c3.44-7.62,6.88-15.25,10.32-22.87c2.46-5.46,4.93-10.92,7.39-16.38
				c1.17-2.59,2.35-5.19,3.51-7.78c0.05-0.11,0.1-0.22,0.15-0.33c0.85-1.89,1.33-3.7,0.76-5.78c-0.48-1.74-1.82-3.63-3.45-4.48
				c-3.28-1.73-8.54-1.13-10.26,2.69c-0.8,1.77-1.6,3.54-2.4,5.32c-2.19,4.85-4.37,9.69-6.56,14.54
				c-3.22,7.14-6.45,14.29-9.67,21.43c-3.95,8.75-7.9,17.5-11.84,26.25c-4.31,9.55-8.61,19.09-12.92,28.64
				c-4.35,9.64-8.7,19.27-13.04,28.91c-4.05,8.99-8.11,17.97-12.16,26.96c-3.44,7.62-6.88,15.25-10.32,22.87
				c-2.46,5.46-4.93,10.92-7.39,16.38c-1.17,2.59-2.35,5.19-3.51,7.78c-0.05,0.11-0.1,0.22-0.15,0.33c-0.85,1.89-1.33,3.7-0.76,5.78
				c0.48,1.74,1.82,3.63,3.45,4.48C131.99,323.71,137.25,323.1,138.98,319.29L138.98,319.29z"/>
		</g>
	</g>
	<g>
		<line class="st1" x1="200.5" y1="307.5" x2="200.5" y2="61"/>
		<g>
			<path d="M208,307.5c0-2.2,0-4.4,0-6.6c0-5.99,0-11.97,0-17.96c0-8.82,0-17.64,0-26.46c0-10.83,0-21.67,0-32.5
				c0-11.79,0-23.57,0-35.36c0-11.94,0-23.87,0-35.81c0-11.13,0-22.26,0-33.39c0-9.37,0-18.75,0-28.12c0-6.76,0-13.53,0-20.29
				c0-3.2,0.03-6.4,0-9.6c0-0.14,0-0.27,0-0.41c0-3.92-3.45-7.68-7.5-7.5c-4.06,0.18-7.5,3.3-7.5,7.5c0,2.2,0,4.4,0,6.6
				c0,5.99,0,11.97,0,17.96c0,8.82,0,17.64,0,26.46c0,10.83,0,21.67,0,32.5c0,11.79,0,23.57,0,35.36c0,11.94,0,23.87,0,35.81
				c0,11.13,0,22.26,0,33.39c0,9.37,0,18.75,0,28.12c0,6.76,0,13.53,0,20.29c0,3.2-0.03,6.4,0,9.6c0,0.14,0,0.27,0,0.41
				c0,3.92,3.45,7.68,7.5,7.5C204.56,314.82,208,311.7,208,307.5L208,307.5z"/>
		</g>
	</g>
	<g>
		<line class="st1" x1="130" y1="231.5" x2="273" y2="231.5"/>
		<g>
			<path d="M130,239c4.77,0,9.53,0,14.3,0c11.36,0,22.72,0,34.08,0c13.77,0,27.55,0,41.32,0c11.91,0,23.81,0,35.72,0
				c5.78,0,11.56,0.1,17.34,0c0.08,0,0.17,0,0.25,0c3.92,0,7.68-3.45,7.5-7.5c-0.18-4.06-3.3-7.5-7.5-7.5c-4.77,0-9.53,0-14.3,0
				c-11.36,0-22.72,0-34.08,0c-13.77,0-27.55,0-41.32,0c-11.91,0-23.81,0-35.72,0c-5.78,0-11.56-0.1-17.34,0c-0.08,0-0.17,0-0.25,0
				c-3.92,0-7.68,3.45-7.5,7.5C122.68,235.56,125.8,239,130,239L130,239z"/>
		</g>
	</g>
	<g>
		<g>
			<g>
				<g>
					<path class="st2" d="M42.56,248.31c-2.33-4.49-5.23-15.15-4.17-15.17c-0.49,0.01-0.74,0.01-1.16-0.88
						c-0.21-0.45-0.46-1.12-0.81-2.13c-0.17-0.51-0.38-1.09-0.59-1.79c-0.19-0.7-0.41-1.49-0.66-2.4c0.33,0.02,0.15-1.63-0.2-3.8
						c-0.42-2.17-0.72-4.91-1.05-7.03c-0.01,3.57,0.44,8.45,2.48,18.02c0.42,1.05,0.82,2.25,1.21,3.57c0.44,1.3,0.89,2.72,1.32,4.21
						c0.45,1.49,0.83,3.08,1.33,4.66c0.5,1.59,1.01,3.21,1.51,4.82c0.26,0.81,0.51,1.62,0.76,2.42c0.29,0.79,0.58,1.57,0.87,2.34
						c0.58,1.54,1.16,3.04,1.74,4.45c1.21,2.79,2.53,5.19,3.71,6.93c-0.54-1.41-1.05-2.82-1.55-4.25c-0.25-0.71-0.5-1.43-0.75-2.16
						c-0.22-0.74-0.45-1.48-0.68-2.23c-0.46-1.5-0.96-3.04-1.53-4.61C43.75,251.7,43.26,250.02,42.56,248.31z"/>
					<path class="st2" d="M38.62,209.21l-0.48-1.24c0.15,1.24,0.27,2.48,0.46,3.71l0.62,3.69l0.62,3.68
						c0.23,1.22,0.53,2.43,0.79,3.65c-0.21-0.73-0.5-1.9-0.81-3.25c-0.25-1.36-0.5-2.91-0.73-4.39c-0.22-1.47-0.42-2.87-0.52-3.93
						C38.51,210.07,38.51,209.34,38.62,209.21z"/>
					<path d="M40.3,161.06c0.39,1.45,2.5-5.87,3.09-5.56c-1.61-0.12,2.8-11.57,4.93-17.72l-0.05-2.84
						c-0.38,0.71-0.81,1.56-1.27,2.54c-0.45,0.99-0.86,2.12-1.32,3.35c-0.45,1.24-0.93,2.57-1.44,3.98
						c-0.49,1.42-0.89,2.95-1.36,4.52c-1.92,6.28-3.3,13.64-4.47,20.38C39.01,166.83,39.65,163.94,40.3,161.06z"/>
					<path class="st2" d="M44.06,149.34c0.18-1.44,0.31-2.9,0.54-4.34C43.73,148.51,41.6,156.55,44.06,149.34z"/>
					<path class="st2" d="M38.05,157.39c-2.48,10.59,1.86-6.29-0.26,4.44C38.34,158.21,39.31,154.07,38.05,157.39z"/>
					<path d="M55.91,115.87c-1.64,3.44-3.4,6.82-4.82,10.36l-1.12,2.63c-0.38,0.87-0.74,1.75-1.05,2.65l-1.97,5.35l1.95-4.3
						l0.97-2.14l1.08-2.1c0.78-2.08,1.48-4.21,2.34-6.27L55.91,115.87z"/>
					<path d="M58.56,115.91c-1.43,2.57-3.84,6.56-2.27,2.61c0.57-0.85,1.04-1.69,1.55-2.46c0.51-0.78,0.97-1.54,1.41-2.28
						c0.88-1.48,1.63-2.92,2.41-4.33c0.82-1.38,1.63-2.74,2.53-4.14c0.45-0.7,0.92-1.4,1.42-2.11c0.52-0.71,1.11-1.4,1.72-2.11
						c-1.33,1.99-2.47,4.11-3.67,6.18c0.32-0.08,0.94-0.94,1.7-2.17c0.39-0.61,0.78-1.33,1.25-2.05c0.47-0.72,0.96-1.48,1.45-2.23
						c0.98-1.5,1.95-2.95,2.74-3.95c0.84-0.96,1.49-1.48,1.75-1.16c2.54-4.15,1.15-2.93-0.01-1.95c-1.15,0.98-2.07,1.72,1.55-3.53
						c-1.78,2.42-3.54,4.59-5.1,6.76c-1.53,2.19-3.08,4.21-4.48,6.26c-1.39,2.06-2.74,4.08-4.09,6.1c-1.28,2.08-2.55,4.16-3.87,6.31
						c1.75-2.36,2.26-3.44,4.58-6.84c-0.92,1.53-1.83,3.25-2.8,5.04c-0.48,0.9-1,1.81-1.46,2.76c-0.45,0.96-0.91,1.93-1.38,2.91
						c-1.93,3.89-3.57,8.07-5.19,11.9c1.34-1.88,2.5-4.26,3.68-6.98c0.59-1.36,1.32-2.73,2.06-4.18
						C56.8,118.85,57.55,117.33,58.56,115.91z"/>
					<path d="M79.4,86.74c5.07-5.73,13.62-13.8,14.5-15.94c-3.39,2.29-5.02,4.06-6.22,5.45c-1.17,1.42-1.85,2.55-2.91,4.06
						c-0.88,0.77-2.65,2.53-4,3.76c-1.32,1.25-2.18,2.02-1.4,0.62C80.31,84.03,76.8,89.05,79.4,86.74z"/>
					<path d="M101.34,66.37c1.24-1.43,2.46-2.89,3.79-4.24l-1.41,1.12c-0.46,0.38-0.91,0.79-1.36,1.18l-0.8-0.36
						c-0.19,0.27-0.61,1.11-1.72,2.45c-0.55,0.68-1.3,1.46-2.26,2.4c-0.93,0.97-2.09,2.07-3.55,3.31c1.7-1.08,2.68-1.97,3.65-2.9
						C98.66,68.41,99.67,67.52,101.34,66.37z"/>
					<path d="M99.54,60.99c0.56-0.37,1.09-0.71,1.6-1.05c0.52-0.32,1.01-0.63,1.49-0.95c0.95-0.63,1.83-1.25,2.72-1.91
						c0.89-0.65,1.76-1.38,2.77-2.11c1.01-0.72,2.1-1.51,3.35-2.41c-3.61,2.29-7.81,5.31-11.32,8c-1.72,1.39-3.28,2.67-4.53,3.73
						c-1.26,1.03-2.09,1.96-2.52,2.45l0.38-0.58c0,0-1.41,1.43-3.32,3.37c-0.96,0.95-1.97,2.12-2.97,3.3
						C86.19,74,85.19,75.2,84.3,76.3c1.43-1.62,3.25-3.46,5.13-5.28c1.97-1.73,3.97-3.48,5.7-5
						C98.71,63.11,101.14,60.97,99.54,60.99z"/>
					<polygon points="91.03,67.84 93.18,65.56 94.26,64.41 95.39,63.32 94.26,64.41 93.18,65.56 					"/>
					<polygon points="120.78,52.99 118.2,54.37 116.91,55.06 115.66,55.82 110.63,58.83 113.22,57.56 116.95,55.18 					"/>
					<path d="M107.1,57.74c1.96-1.38,2.71-1.81,2.75-1.94c0.04-0.11-0.58,0.16-1.23,0.43c-0.64,0.28-1.28,0.61-1.3,0.51
						c-0.02-0.08,0.55-0.61,2.47-1.81c1-0.71-1.83,1.04-4.77,3.32c-1.48,1.13-3.08,2.26-4.22,3.3c-1.16,1.02-1.97,1.79-2.04,2
						c0.49-0.32,1.17-0.87,1.92-1.51c0.38-0.32,0.78-0.66,1.18-1.01c0.42-0.33,0.85-0.66,1.27-0.98
						C104.83,58.77,106.44,57.65,107.1,57.74z"/>
					<path d="M127.54,49.43c1.38-0.83,2.71-1.75,4.13-2.51l4.23-2.36l-4.23,2.36C130.25,47.68,128.92,48.6,127.54,49.43z"/>
					<path d="M149.85,40.61l1.61-1.15c4.51-1.19,9.75-2.75,14.79-3.82c2.5-0.63,4.98-0.96,7.23-1.27c1.13-0.15,2.2-0.27,3.21-0.35
						c1.01-0.04,1.96-0.03,2.81,0.02c-0.84-0.25,0.07-0.74,0.18-1.06c0.05-0.16-0.1-0.28-0.78-0.31c-0.67-0.01-1.89-0.02-3.92,0.32
						c-1.2,0.6-4.09,1.11-3.54,1.47c-3.48,0.47-2.87-0.15-5.2,0.18c-5.79,1.79-14.87,4.06-19.25,6.24c2.21-0.88,2.79-0.94,4.46-1.43
						c-2.35,1.06-4.26,1.74-5.87,2.22c-1.58,0.55-2.87,0.89-3.99,1.18c-2.23,0.58-3.8,0.95-5.51,2.67c1.53-1.02,3.9-1.77,6.39-2.55
						c1.25-0.38,2.51-0.82,3.77-1.18C147.52,41.44,148.74,41.05,149.85,40.61z"/>
					<path d="M147.78,37.16c-1.33,0.43-2.68,0.8-4.01,1.27l-3.95,1.44c0.54-0.42,1.4-0.86,2.41-1.32c1.01-0.46,2.17-0.92,3.32-1.29
						c2.29-0.78,4.43-1.5,4.98-2.05c-0.61-0.27-8.68,2.23-5.85,0.94c-0.38,1.97-10.72,4.3-5.92,4.54c-2.52,1.01-3.92,1.71-4.89,2.02
						c-0.95,0.33-1.41,0.38-1.88,0.44c-0.94,0.13-2.03,0.15-7.11,2.86l-2.44,2.32c2.78-1.56,5.02-2.75,6.98-3.74
						c2.01-0.9,3.73-1.63,5.45-2.36c1.71-0.76,3.47-1.38,5.52-2.19c1.02-0.41,2.12-0.85,3.33-1.34
						C144.94,38.19,146.3,37.74,147.78,37.16z"/>
					<path d="M179.31,30.04l4.1,0.08l-2.28-0.56c1.16-0.16,2.29-0.29,3.39-0.42c1.11-0.07,2.19-0.12,3.24-0.16
						c2.11-0.06,4.11-0.15,6.03-0.07c1.92,0.1,3.74,0.23,5.49,0.37c0.87,0.08,1.73,0.13,2.56,0.24c0.83,0.12,1.65,0.24,2.45,0.36
						c1.6,0.24,3.14,0.46,4.64,0.69c1.5,0.19,2.94,0.53,4.36,0.74c1.42,0.24,2.81,0.44,4.2,0.59c1.38,0.15,2.75,0.38,4.14,0.48
						c1.74,0.08,3.46,0.18,5.16,0.37c1.69,0.24,3.37,0.51,5.04,0.81l2.49,0.46c0.82,0.18,1.64,0.4,2.46,0.61l4.88,1.29
						c1.62,0.45,3.21,1.03,4.82,1.55c1.6,0.55,3.23,1,4.82,1.64c3.19,1.21,6.46,2.32,9.73,3.64c6.68,1.85-5.99-2.87-6.59-3.35
						c1.17-0.34,2.73,0.32,4.37,1.2c1.64,0.88,3.39,1.84,5.12,1.89c0.31-0.16-0.36-0.63-1.62-1.31c-0.63-0.34-1.41-0.72-2.3-1.14
						c-0.88-0.42-1.86-0.88-2.93-1.28c-2.12-0.82-4.45-1.73-6.61-2.56c-2.19-0.74-4.21-1.44-5.65-2.01
						c-1.3-0.34-2.28-0.55-3.05-0.65c-0.77-0.12-1.31-0.17-1.75-0.18c-0.87-0.02-1.3,0.11-2.16,0.21c-0.6-0.41-2.2-1.04-3.84-1.52
						c-1.64-0.48-3.28-0.97-3.91-1.37c-1.4-0.13-2.7-0.35-3.95-0.46c-1.25-0.12-2.43-0.26-3.57-0.41c-2.28-0.31-4.37-0.69-6.49-0.89
						c-2.11-0.24-4.22-0.51-6.49-0.65c-2.28-0.07-4.72-0.06-7.47,0.09c-3.44-0.87,8.27,0.06,4.61-0.15
						c-2.01-0.03-4.01-0.13-6.02-0.09l0.64,0.11c-2.04,0.25-4.52,0.42-7.16,0.52c-1.32,0.02-2.68,0.17-4.05,0.25
						c-1.37,0.08-2.76,0.16-4.12,0.23c-5.43,0.4-10.54,0.76-13.18,1.03c2.06-0.24,3.82-0.32,4.47-0.14c0.66,0.17,0.18,0.37-2.2,0.92
						l-4.09-0.2c-3.4,0.97-6.69,2.33-9.99,3.51c1.89-0.66,3.9-1.18,5.86-1.62c0.98-0.24,1.95-0.39,2.9-0.52
						c0.95-0.13,1.86-0.26,2.72-0.39c1.73-0.23,3.25-0.51,4.43-0.74C178.14,30.81,178.97,30.5,179.31,30.04z"/>
					<path d="M167.52,30.33c-6.21,1.18-5.77,1.43-5.47,1.72c0.15,0.14,0.26,0.3-0.51,0.58c-0.38,0.15-0.99,0.31-1.92,0.55
						c-0.92,0.27-2.16,0.6-3.83,1.02l3.48-1.01c1.16-0.33,2.35-0.57,3.52-0.87c2.36-0.53,4.69-1.19,7.08-1.58
						C169.1,30.61,168.3,30.45,167.52,30.33z"/>
					<path class="st2" d="M227.25,31.15l5.94,1.7c-1.52-0.92-4.76-1.4-6.73-1.59C224.48,31.15,223.77,31.19,227.25,31.15z"/>
					<path class="st2" d="M249.4,36.21l-3.46,0.24c1.9,0.34,3.84,0.57,5.73,1C250.93,37,250.17,36.59,249.4,36.21z"/>
					<path d="M268.24,44.76c2.21,0.67,2.13,0.33,0.86-0.44c-1.26-0.77-3.69-2-6.22-2.86c1.11,0.46,2.09,0.87,2.89,1.27
						c0.79,0.42,1.43,0.8,1.89,1.11C268.58,44.45,268.81,44.8,268.24,44.76z"/>
					<path class="st2" d="M296.2,63.48c-4.16-2.96-2.36-1.58-0.34,0.1c2.04,1.66,4.16,3.75,0.94,1.98c0.7,0.16,2.13,0.95,2.63,1.01
						c0.25,0.03,0.25-0.11-0.2-0.59c-0.23-0.24-0.57-0.56-1.05-0.99C297.67,64.6,297.03,64.1,296.2,63.48z"/>
					<path d="M318.8,87.3c-2.67-2.48-3.54-3.68-3.67-4.24C316.93,84.99,318.33,86.56,318.8,87.3z"/>
					<path d="M208.34,32.13c-1.18-0.02-2.45-0.06-3.6-0.12C205.97,32.05,207.13,32.09,208.34,32.13z"/>
					<path d="M210.69,32.26c-0.77-0.08-1.57-0.09-2.35-0.12C209.23,32.15,210.01,32.17,210.69,32.26z"/>
					<path d="M281.78,56.11c-0.02-0.01-0.02-0.01-0.03-0.01c-0.21-0.17-0.42-0.31-0.63-0.49L281.78,56.11z"/>
					<path d="M39.19,179.23c-0.09,2-0.19,3.54-0.29,4.78c0.09-1.57,0.19-3.17,0.28-4.73C39.19,179.25,39.19,179.25,39.19,179.23z"/>
					<path d="M37.15,184.67c-0.02-4.28,0.48-6.54,1.37-9.39c0.42-1.43,0.86-3.01,1.27-5.1c0.46-2.08,1.02-4.63,1.48-8.04
						c-0.39,2.75-0.88,5.54-1.23,8.4c-0.15,1.43-0.3,2.88-0.46,4.34c-0.15,1.46-0.35,2.92-0.4,4.4
						C37.42,187.04,39.03,173.12,37.15,184.67z"/>
					<path d="M81.27,80.03c0.11-0.13,0.2-0.24,0.31-0.38C82.13,79.01,81.86,79.35,81.27,80.03z"/>
					<path class="st2" d="M300.48,324.53l-0.13-0.31l3.1-2.18c1.03-0.73,2.09-1.44,3.07-2.23c-0.96,0.85-1.99,1.6-3,2.38
						L300.48,324.53z"/>
					<path class="st2" d="M299.31,324.71c-3.59,2.34-7.15,4.69-10.89,6.75c21.31-13.54,39.28-32.21,52.2-53.85
						c-0.27,0.79-0.58,1.56-0.9,2.33c0.13-0.07-0.3,0.7-1.16,2.1c-0.86,1.4-2.09,3.47-3.81,5.81c-0.84,1.19-1.75,2.47-2.72,3.84
						c-1.03,1.32-2.12,2.71-3.25,4.15c-0.57,0.72-1.14,1.45-1.73,2.19c-0.62,0.71-1.24,1.43-1.87,2.15
						c-1.28,1.44-2.51,2.95-3.85,4.36c-1.35,1.41-2.69,2.81-4.02,4.19c-1.31,1.39-2.73,2.63-4.02,3.89
						c-2.57,2.55-5.19,4.65-7.31,6.53c-1.05,0.95-2.08,1.72-2.96,2.43c-0.87,0.71-1.62,1.31-2.22,1.79
						C299.62,324.33,299.05,324.83,299.31,324.71z"/>
					<path class="st2" d="M296.64,327.26c-1.32,1.33-2.61,2.46-3.96,3.4c-1.37,0.92-2.75,1.72-4.18,2.53
						c-0.71,0.41-1.44,0.82-2.19,1.25c-0.77,0.4-1.55,0.82-2.36,1.27c-1.63,0.89-3.3,2.01-5.21,3.27c2.53-1.71,4.58-3.35,6.69-4.78
						c2.08-1.51,4.13-2.98,6.68-4.4C293.64,328.99,295.12,328.11,296.64,327.26z"/>
					<path class="st3" d="M276.08,342.72c-0.95,0.41-1.92,0.9-2.89,1.39c-0.98,0.46-1.95,0.94-2.86,1.4
						c-1.83,0.91-3.45,1.77-4.57,2.12c0.47-0.73,2.22-1.62,4.29-2.45c1.03-0.42,2.14-0.83,3.2-1.23
						C274.29,343.52,275.27,343.09,276.08,342.72z"/>
					<path d="M267.52,351.03c-0.61,0.26-1.21,0.5-1.82,0.73c0.7-0.34,1.33-0.66,1.8-0.92L267.52,351.03z"/>
					<path d="M267.49,350.84l-0.08-0.47C268.74,349.97,268.45,350.26,267.49,350.84z"/>
					<path d="M265.69,351.75c-1.57,0.78-3.45,1.68-4.39,2.26l1.73-0.61c-2.25,1.1-6.33,2.83-7.53,2.96c4.69-1.51,4.66-1.83,4.57-2.5
						l-7.56,2.48c0.48-0.97,2.1-1.5,4.46-2.06C259.34,353.79,262.37,353.01,265.69,351.75z"/>
					<path class="st3" d="M241.87,359.86l1.95-0.68l1.92-0.76l3.81-1.54c1.2,0.1,0.04,0.66-1.81,1.3c-0.92,0.32-2.01,0.66-3.06,0.98
						C243.64,359.48,242.61,359.67,241.87,359.86z"/>
					<path d="M229.87,361.31c0.91-0.29,3.33-0.76,4.91-1.11c0.79-0.16,1.37-0.34,1.45-0.41c0.08-0.09-0.32-0.02-1.52,0.08
						c1.24-0.38,2.73-0.75,4.32-1.09C233.85,360.13,239,360.21,229.87,361.31z"/>
					<path d="M239.02,358.77c0.62-0.17,1.3-0.35,2.22-0.56C240.51,358.43,239.75,358.61,239.02,358.77z"/>
					<path class="st3" d="M311.13,317.38c-0.81,0.54-0.85,0.43-0.61,0.08L311.13,317.38z"/>
					<path d="M213.61,362.29l-3.03,0.22c0.87-0.06,1.67-0.15,2.44-0.23L213.61,362.29z"/>
					<path d="M361.62,194.5c-0.13,2.52-0.25,5.01-0.38,7.55c-0.18,2.54-0.47,5.12-0.68,7.84c-0.26,2.72-0.69,5.56-1.01,8.65
						c-0.23,1.53-0.48,3.12-0.73,4.77c-0.26,1.65-0.45,3.39-0.83,5.17c1.14-0.1-0.99,5.79-0.11,6.9c1.65-7.46-1.06,6.7-6.49,20.47
						c-0.61,1.75-1.39,3.42-2.1,5.1c-0.74,1.66-1.37,3.33-2.14,4.85c-1.52,3.05-2.77,5.89-3.98,8.01c-2.31,4.31-3.32,6.36-1.69,3.77
						l1.39-3.43l-0.91,3.88c-4.04,6.22-10.55,13.91-13.25,18.13c-0.14,0.11,0.36-0.58,1.34-1.87c0.49-0.64,1.1-1.43,1.8-2.35
						c0.67-0.95,1.42-2.02,2.25-3.21c3.41-4.66,7.51-11.32,11.18-18.16c0.88-1.73,1.77-3.46,2.63-5.15
						c0.82-1.72,1.56-3.44,2.31-5.08c0.37-0.82,0.73-1.63,1.09-2.42c0.32-0.8,0.63-1.59,0.93-2.35c0.6-1.53,1.16-2.96,1.67-4.28
						c1.87-5.32,2.91-8.71,2.65-8.16c0.39-0.62,0.27,0.18-0.24,2.08c-0.54,1.89-1.31,4.93-2.73,8.58
						c-2.62,7.38-7.16,17.49-13.08,27.11c-5.85,9.67-13.02,18.78-19.02,25.33c-1.52,1.62-2.92,3.13-4.17,4.47
						c-1.31,1.29-2.47,2.44-3.44,3.4c-1.92,1.96-3.19,3.1-3.36,3.35l-1.24,0.15c-1.02,1.01-1.99,1.98-2.92,2.91
						c-0.92,0.95-1.89,1.77-2.78,2.62c-1.81,1.67-3.45,3.31-5.19,4.74c-1.72,1.45-3.37,2.94-5.14,4.31
						c-1.79,1.36-3.63,2.72-5.62,4.14l-2.34,0.38c1.59-0.8,2.82-1.58,3.9-2.3c1.08-0.72,2-1.38,2.92-2.06
						c1.86-1.31,3.54-2.92,6.4-5.14c-1.27,0.92-2.41,1.74-3.45,2.49c-1.04,0.75-1.99,1.4-2.9,1.95c-1.81,1.11-3.31,2.03-4.73,2.89
						c-1.42,0.86-2.84,1.55-4.35,2.42c-1.53,0.84-3.18,1.86-5.3,2.94c0.4,0.4,2.31-0.39,2.77-0.6c0.23-0.1,0.14,0.01-0.68,0.5
						c-0.83,0.48-2.37,1.36-4.99,2.87c-1.65,0.59-0.82-0.31-0.77-0.7c0.04-0.42-0.63-0.22-5.48,2.05
						c-12.04,4.79-9.07,5.31-19.89,8.92l1.88-0.43l1.85-0.51l3.71-1.04c-3.94,1.48-11.43,3.96-15.53,4.27
						c0.58-0.12,1.28-0.29,2.04-0.47c0.76-0.21,1.58-0.48,2.44-0.75c1.72-0.55,3.56-1.19,5.24-1.81c3.31-1.39,5.94-2.75,5.59-3.21
						c-4.42,1.92-14.72,4.42-18.79,5.25l2.3-1.32c-2.3,0.14-4,0.68-5.89,1.15c-1.89,0.44-3.93,0.91-6.8,1.09
						c-2.64,0.61-1.8,0.74-0.64,0.87c1.15,0.08,2.59,0.06,1.12,0.49c-0.57,0.02-3.5,0.17-6.72,0.52c-0.8,0.09-1.63,0.18-2.44,0.27
						c-0.81,0.07-1.62,0.13-2.38,0.19c-1.52,0.14-2.86,0.31-3.76,0.51c0.67,0.35,1.79,0.44,3.2,0.39c1.41-0.06,3.11-0.2,4.92-0.53
						c1.81-0.29,3.76-0.61,5.68-0.8c1.92-0.21,3.8-0.44,5.55-0.34c-1.66,0.24-3.32,0.51-4.99,0.73l-5.01,0.49
						c-3.05,1.19,0.95,0.68,5.34,0.07c4.35-0.82,9.07-1.75,7.57-0.83c-3.59,1.47-7.59,1.87-11.5,1.94
						c-3.91,0.23-7.72,0.17-11.19,1.5c2.36,0,7.31-0.16,11.41-0.65c4.11-0.32,7.37-0.83,6.47-0.37c-2.67,0.23-4.93,0.56-7.43,1.14
						c-1.25,0.26-2.56,0.62-4.03,0.86c-1.47,0.24-3.08,0.47-4.92,0.66c-2.99,0.04-5.98-0.22-8.96-0.38
						c-3.76,0.6-0.73,0.53,2.25,0.79c-1.65-0.09-3.43-0.09-5.33-0.16c-1.9-0.11-3.91-0.2-6.02-0.27c-2.11-0.03-4.29-0.26-6.55-0.42
						c-1.13-0.09-2.27-0.17-3.43-0.26c-1.16-0.08-2.32-0.27-3.5-0.41c-9.43-1.07-19.47-3.13-28.15-6.41
						c-1.33-0.33-2.34-0.63-3.1-0.86c-0.77-0.22-1.29-0.36-1.65-0.43c-0.71-0.15-0.73-0.05-0.57,0.12c0.31,0.34,1.33,0.96-1.14,0.42
						c-2.65-1.34-6.27-2.86-10-4.25c-1.86-0.7-3.68-1.52-5.42-2.22c-1.74-0.71-3.37-1.39-4.71-2.12c-1.58-0.88-4.95-1.54-3.58-0.4
						c2.35,1.07,4.66,2.23,7.07,3.15l3.58,1.45l1.79,0.73l1.82,0.64c-0.89,0.19,0.89,1.85,6.13,3.72c-0.75-0.75,0.15-0.62,1.93-0.03
						c0.89,0.3,2.01,0.71,3.27,1.18c0.63,0.24,1.28,0.49,1.97,0.75c0.68,0.25,1.4,0.47,2.12,0.72c5.75,2.04,12.3,3.65,13.06,2.75
						l-0.42,0.9c1.62,0.35,3.27,0.56,4.91,0.8l4.92,0.71c1.64,0.19,3.29,0.32,4.94,0.48c1.65,0.13,3.29,0.36,4.94,0.41l-0.57-0.17
						c-0.03,0.08,1.01,0.16,2.74,0.25c0.87,0.04,1.91,0.09,3.08,0.15c1.17,0.05,2.47,0.13,3.86,0.1c1.39,0,2.86,0,4.38,0
						c1.51,0.01,3.07,0.04,4.62-0.05c1.55-0.04,3.1-0.08,4.6-0.12c0.75-0.01,1.49-0.02,2.21-0.02c0.72-0.03,1.43-0.06,2.11-0.09
						c-1.55,0.37-6.91,0.39-10.53,0.59c-3.61,0.01-5.52,0.12-0.11,0.78c-2.03,0.1-4.48,0.08-7.22,0.01
						c-1.37-0.01-2.82-0.14-4.33-0.27c-1.51-0.14-3.08-0.28-4.71-0.42c-1.63-0.11-3.29-0.43-5-0.64c-1.71-0.25-3.46-0.46-5.23-0.74
						c-1.77-0.31-3.56-0.63-5.37-0.95c-0.91-0.15-1.82-0.31-2.73-0.46c-0.91-0.19-1.82-0.38-2.73-0.56l2.7,1.29
						c-7.77-1.19-16.62-3.66-25.32-7.05c-8.72-3.36-17.2-7.78-24.79-11.97c1.65,0.59,3.25,1.23,4.93,1.72
						c-1.33-0.74-2.67-1.68-4.07-2.6c-1.4-0.91-2.85-1.85-4.28-2.78c-1.41-0.98-2.82-1.92-4.2-2.77c-1.39-0.85-2.76-1.59-4.01-2.29
						c1.49,1.08,2.47,1.68,3,2.09c0.53,0.4,0.64,0.55,0.51,0.57c-0.25,0.04-1.46-0.47-2.13-0.67c-2.14-1.3-4.43-2.91-6.89-4.62
						c-2.39-1.81-4.92-3.78-7.47-5.9c-1.25-1.09-2.52-2.2-3.8-3.33c-0.64-0.56-1.29-1.12-1.93-1.7c-0.62-0.59-1.25-1.19-1.87-1.78
						c-1.26-1.19-2.52-2.38-3.78-3.56c-1.22-1.23-2.44-2.45-3.64-3.67c0,0,0.6,0.35,0.29-0.16c-0.85-0.84-1.72-1.66-2.56-2.51
						l-2.45-2.62l-2.45-2.62c-0.83-0.87-1.56-1.81-2.35-2.71c-2.04-2.72-3.34-4.59-4.25-6.34c-0.95-1.72-1.66-3.2-2.62-5.06
						c-1.47-2.01-4.77-7.23-3.95-4.97c0.68,1.15,1.35,2.3,1.87,3.01c-4.75-5.58-2.51-4.39-7.54-11.96c4.18,5.68-0.07-2.45,1.15-2.15
						c-5.11-9.19-1.77-0.2-2.7-1.18c-0.67-1.46-1.27-2.77-1.81-3.95c-0.47-1.22-0.89-2.31-1.29-3.32c-0.75-2.04-1.43-3.72-1.97-5.45
						c-0.55-1.74-1.1-3.46-1.8-5.51c-0.18-0.51-0.36-1.04-0.55-1.6c-0.17-0.56-0.35-1.16-0.54-1.78c-0.39-1.24-0.82-2.6-1.31-4.13
						c-0.36-0.27,0.28,1.91,1,4.32c0.18,0.6,0.36,1.22,0.53,1.81c0.19,0.59,0.38,1.15,0.55,1.66c0.32,1.02,0.53,1.82,0.5,2.13
						c-1.29-3.43-2.64-7.53-3.05-8.09l1.08,3.82c0.35,1.28,0.82,2.51,1.22,3.78c-1.16-3.16-2-6.39-3-9.57
						c-0.52-1.58-0.88-3.22-1.32-4.83c-0.43-1.62-0.86-3.24-1.3-4.87c-1.5-6.59-3.05-13.37-4.11-20.75l-0.11,1.2l-0.57-4.59
						c-0.19-1.53-0.25-3.07-0.38-4.61l1.21,3.22c-0.31-2.46-0.36-5.04-0.44-7.32c-0.05-2.28-0.02-4.27-0.46-5.59l-0.02,1.83
						c-0.14-2.07-0.33-4.14-0.44-6.22c0.32,2.14,0.73,4.26,1.09,6.37c0.06-1.97-0.07-4.12-0.2-6.45c-0.07-2.33-0.21-4.83-0.35-7.51
						c-0.08-2.67-0.03-5.5,0.02-8.47c0.13-2.97,0.49-6.06,0.92-9.26c0.41-0.64,0.46,0.43,0.34,2.41c-0.06,0.99-0.17,2.21-0.29,3.56
						c-0.14,1.35-0.29,2.84-0.33,4.36c-0.07,1.52-0.14,3.08-0.21,4.58c-0.02,0.75-0.05,1.48-0.07,2.18c0.02,0.7,0.05,1.38,0.07,2.01
						c0.11,2.53,0.33,4.39,0.73,4.81c0.2-2.1,0.36-4.96,0.55-7.6c0.25-2.64,0.39-5.08,0.27-6.38c-0.49,0.47-0.73,3.51-0.97,6.56
						c0.02-2.8,0.1-5.97,0.45-9.21c0.21-1.62,0.42-3.27,0.64-4.91c0.11-0.82,0.23-1.64,0.34-2.46c0.15-0.81,0.3-1.62,0.45-2.41
						c0.6-3.19,1.12-6.26,1.71-8.95c0.55-2.69,0.84-5.08,1.02-6.87c-0.5,1.33-0.9,2.69-1.3,4.04l-1.22,4.08
						c0.51-2.42,1.1-4.6,1.68-6.55c0.68-1.93,1.34-3.64,1.93-5.15c1.12-3.04,2.16-5.22,2.22-6.95l-0.45,3.93
						c-0.14,1.31-0.19,2.63-0.29,3.94c0.25-1.22,0.49-2.49,0.82-3.77c0.36-1.27,0.73-2.57,1.11-3.89c0.4-1.31,0.77-2.66,1.22-3.98
						c0.48-1.32,0.96-2.64,1.44-3.95c0.49-1.31,0.94-2.64,1.46-3.92c0.53-1.27,1.06-2.53,1.57-3.76c0.51-1.23,1.01-2.44,1.49-3.61
						c0.51-1.16,1.01-2.27,1.49-3.34c-0.19-0.16-0.66,0.51-1.27,1.6c-0.3,0.55-0.65,1.19-0.98,1.9c-0.31,0.72-0.64,1.49-0.96,2.26
						c-1.28,3.08-2.44,6.13-2.36,5.81c0.34-1.47,0.78-2.9,1.17-4.36c0.82-1.63,1.47-2.92,1.99-3.95c0.58-0.99,1.01-1.74,1.36-2.33
						c0.7-1.16,1.04-1.68,1.44-2.28c0.4-0.6,0.81-1.29,1.71-2.77c0.96-1.45,2.32-3.73,4.72-7.42l-0.46-0.47
						c1-1.11,2.19-2.84,3.37-4.71c1.18-1.88,2.53-3.79,3.59-5.45c0.55-0.82,1.05-1.56,1.46-2.17c0.43-0.6,0.81-1.04,1.07-1.31
						c0.52-0.53,0.6-0.3,0.03,1.12c-1.07,1.18-2.07,2.43-3.12,3.65l0.87,0.11c3.72-5.65,7.95-10.95,12.31-16.13
						c-0.94,1.82,5.7-5.39,4.44-2.95c1.51-1.99,3.19-3.83,4.83-5.73c1.62-0.76-0.68,1.81-3.26,4.78c-2.51,3.05-5.38,6.43-5.28,7.05
						c0.28,0.08,0.95-0.58,1.75-1.35c0.8-0.78,1.66-1.74,2.22-2.38c-5.47,6.98-9.69,9.13-15.04,16.26l-1.99,4l-0.65-0.74
						c-1.02,1.53-1.72,3.12-2.31,4.43c-0.57,1.31-0.95,2.39-1.14,3.03c-0.36,0.42-0.72,0.84-1.06,1.28
						c-0.33,0.45-0.65,0.9-0.96,1.37c-0.63,0.93-1.24,1.89-1.83,2.89c-0.58,1-1.21,2.01-1.73,3.1c-0.52,1.09-1.05,2.21-1.6,3.37
						c-0.53,1.16-1.09,2.34-1.63,3.58c-0.51,1.25-1.04,2.54-1.58,3.87c-0.54,1.33-1.17,2.67-1.71,4.11
						c-0.55,1.43-1.14,2.91-1.78,4.42c1.75-5.19,0.9-3.66-0.34-1.03c-1.31,2.6-2.71,6.4-2.53,5.47c-0.48,1.43-1.07,3.42-1.65,5.68
						c-0.5,2.28-1.06,4.81-1.61,7.32c-0.48,2.52-0.92,5.01-1.44,7.16c-0.25,1.08-0.49,2.07-0.7,2.96c-0.23,0.88-0.47,1.65-0.72,2.26
						c-1.08,3.4,0.63-7.44-1.07,0.83c-0.21,1.36-0.4,2.61-0.48,3.68c-0.07,1.07-0.09,1.95-0.07,2.55c0.05,1.2,0.28,1.28,0.73-0.43
						c-0.3,3.02-0.73,6.17-0.89,9.43c-0.12,1.63-0.24,3.28-0.36,4.94c-0.05,1.67-0.09,3.35-0.14,5.05
						c-0.24,6.77,0.11,13.7,0.68,20.3l-0.87-3.11c0.01,1.05,0.05,2.09,0.1,3.11c0.06,1.03,0.21,2.04,0.34,3.03
						c0.27,1.98,0.59,3.89,0.94,5.67c0.87,3.52,1.78,6.52,2.55,8.59c0,1.17,0.33,1.76-0.33,0.59c0.34,2.64,0.78,4.78,1.31,6.75
						c0.58,1.96,1.32,3.75,2.1,5.73c0.74,1.99,1.74,4.12,2.83,6.79c1.02,2.7,2.42,5.83,3.95,9.88c0.24-0.63-0.33-2.75-1.26-5.33
						c-0.49-1.28-0.98-2.7-1.49-4.12c-0.52-1.42-1.08-2.82-1.62-4.08l1.43,1.03c-4.77-14.07-7.54-30.59-8.75-42.61l1.18,5.47
						c0.15-2.62,0.1-4.37-0.03-5.7c-0.07-1.33-0.25-2.23-0.43-3.12c-0.18-0.89-0.35-1.75-0.39-3.01c-0.02-0.63-0.01-1.35,0.05-2.23
						c0.1-0.87,0.26-1.89,0.48-3.1c-0.19-7.23-0.66,5.22-0.96-0.24c0.21-2.56,0.65-2.21,1.07-2.3c0.21-0.04,0.41-0.2,0.58-0.87
						c0.17-0.67,0.27-1.86,0.48-3.97c-0.78,15.91,0.66,33.03,4.85,49.7c2.13,8.32,4.89,16.52,8.23,24.41
						c3.39,7.87,7.42,15.38,11.84,22.41c0.52,0.42-0.41-1.06-1.23-2.59c0.87,1.15,2.44,3.34,4.41,6.38c1.01,1.5,2.23,3.14,3.51,4.97
						c1.25,1.85,2.77,3.74,4.33,5.79c6.3,8.12,14.86,17.62,24.49,25.56c9.55,8.03,19.94,14.61,28.25,18.76
						c1.04,0.52,2.03,1.02,2.99,1.5c0.95,0.47,1.9,0.84,2.78,1.22c1.76,0.75,3.32,1.39,4.65,1.9c2.69,0.92,4.43,1.33,4.9,1.16
						c1.4,0.98-3.76-0.59,2.82,1.95c0.68,0.03,2.47,0.36,1.03-0.53c8.11,3.75,18.27,6.48,29.03,8.11
						c10.77,1.65,22.1,2.13,32.87,2.13c-0.25-0.24,0.81-0.38,1.94-0.64c1.12-0.24,2.31-0.48,2.34-0.64c1.85,0.1,4.03,0.15,6.34-0.1
						c2.31-0.25,4.77-0.56,7.2-0.94c2.42-0.47,4.82-0.95,7.04-1.35c2.22-0.45,4.24-0.92,5.96-1.15l-2.29-0.01
						c7.06-1.49,13.94-3.71,20.72-6.14c0.26-0.21-0.28-0.03-1.11,0.23c-0.83,0.25-1.95,0.59-2.78,0.85c1.1-0.44,1.99-0.75,2.73-0.97
						c0.73-0.23,1.29-0.41,1.75-0.49c0.91-0.17,1.35-0.07,1.65,0.05l4.27-2.29l4.15-2.5c0.82-0.31,1.65-0.63,2.49-0.95
						c0.83-0.33,1.64-0.72,2.47-1.09c1.65-0.75,3.31-1.53,4.99-2.34c3.26-1.79,6.65-3.55,9.88-5.71c3.32-2.02,6.48-4.42,9.71-6.77
						c3.11-2.53,6.3-5.04,9.28-7.84c6.03-5.51,11.8-11.49,17.02-17.9c5.25-6.38,10.13-13.03,14.61-19.77
						c0.87-2.32,1.69-4.44,2.83-6.84c0.59-1.19,1.11-2.54,1.8-3.99c0.65-1.47,1.5-3.04,2.3-4.9c-0.6,1.19-1.33,2.3-2.01,3.45
						c1.57-3.82,1.6-3.93,1.77-3.82c0.13,0.1,0.24,0.36,1.52-2.91c1.43-4.55-0.63-1.85-2.84,4.19c-2.13,3.43-1.2,1.11-0.19-1.57
						c5.45-11.49,9.48-23.16,12.28-34.55C359.24,216.06,360.78,204.96,361.62,194.5z"/>
					<path d="M355.71,166.7c-0.03-1.39,0.53,1.27,1.08,3.44c0.47,2.18,0.87,3.9,0.91,0.51c-0.67-10.68-4.09-24.48-9.66-37.95
						c-2.91-6.68-6.16-13.35-9.79-19.55c-3.65-6.18-7.4-12.05-11.13-17.24c-0.93-1.44-1.66-2.63-2.37-3.63
						c-0.73-0.99-1.37-1.84-1.99-2.67c-0.64-0.83-1.26-1.64-1.96-2.55c-0.69-0.92-1.56-1.85-2.54-3.04
						c-0.19,0.02-0.33,0.14-0.25,0.46c-0.6-0.63-1.25-1.32-1.93-2.04c-0.68-0.72-1.4-1.47-2.19-2.2c-1.56-1.47-3.22-3.04-4.88-4.6
						c-1.73-1.49-3.44-2.99-5.04-4.43c-1.62-1.4-3.19-2.66-4.49-3.84c-1.68-1.08-3.24-1.42-0.16,0.79
						c-2.14-1.55-4.17-2.94-5.99-4.34c-0.9-0.71-1.77-1.4-2.62-2.07c-0.86-0.65-1.68-1.27-2.48-1.87c-1.6-1.19-3.03-2.41-4.5-3.32
						c-1.45-0.94-2.84-1.76-4.2-2.38c4.23,2.97-4.76-1.97,0.38,1.41c-2.39-1.4-4.14-2.39-5.46-3.32c-1.32-0.93-2.25-1.75-3.1-2.55
						c-1.76-1.51-3.25-2.97-7.27-4.89c-0.57-0.01-1.14-0.04,0.49,0.68c-2.14-1.13-4.96-2.38-8-3.53c-1.55-0.52-3.14-1.05-4.72-1.58
						c-0.79-0.26-1.58-0.53-2.37-0.76c-0.79-0.22-1.58-0.43-2.34-0.64c-1.53-0.43-3-0.83-4.34-1.21c-1.34-0.4-2.59-0.65-3.64-0.96
						c-2.1-0.59-3.47-1.14-3.64-1.62c-1.32-0.09-2.66-0.04-3.99-0.04c-2.05-0.65-2.8-1.03-3.91-1.43c-1.11-0.43-2.59-0.75-6.13-1.32
						c-4.65-0.32,0.1,0.66-1.61,0.71c-0.92-0.54-4.51-0.88-8.57-1.32c-0.51-0.05-1.02-0.11-1.54-0.16l-1.56-0.1
						c-1.04-0.08-2.08-0.15-3.08-0.23c-2-0.17-3.85-0.41-5.28-0.58c-0.09-0.27,0.51-0.33,1.54-0.29c1.03,0.09,2.48,0.32,4.12,0.55
						c1.64,0.25,3.46,0.43,5.22,0.64c1.76,0.22,3.46,0.32,4.89,0.19c0.2-0.2-0.61-0.33-1.77-0.44c7.41,0.53,14.27,1.94,20.74,3.48
						c6.43,1.75,12.48,3.67,18.17,6.01c11.44,4.58,21.68,9.96,32.18,15.79c2.03,1.75,3.97,3.02,5.73,3.93
						c1.75,0.92,3.23,1.6,4.43,1.96c-0.84-0.69-2.06-1.74-3.49-2.81c-1.45-1.04-3.07-2.17-4.62-3.19c-1.53-1.05-3.08-1.81-4.25-2.34
						c-1.18-0.51-2.02-0.72-2.27-0.42c-1.99-1.59-4.11-2.96-6.2-4.42c-2.59-1.25-1.86-2.61-2.9-3.35c1.22,0.57,2.47,1.18,3.62,1.62
						c1.14,0.44,2.16,0.75,2.83,0.86c1.35,0.22,1.34-0.37-1.81-2.29c6.45,3.19,4.98,3.43,3.43,3.46c-0.79,0.04-1.61,0.05-1.53,0.39
						c0.08,0.34,1.08,0.96,3.82,2.46l2.14-0.05c-1.19-0.32,0.54,0.93,2.96,2.58c1.19,0.86,2.56,1.79,3.86,2.63
						c1.31,0.83,2.53,1.58,3.4,2.11c-0.42-0.38-0.83-0.78-1.25-1.15c6.82,4.81,13.91,10.45,20.77,16.94
						c6.86,6.48,13.47,13.82,19.44,21.79c5.97,7.97,11.3,16.57,15.69,25.44c4.41,8.86,7.92,17.97,10.52,26.85
						c-0.02,1.19,0.09,2.47,0.31,3.84c0.17,1.38,0.4,2.84,0.71,4.35c0.29,1.52,0.73,3.07,1.06,4.68c0.33,1.61,0.7,3.24,1.07,4.88
						c0.18,0.82,0.38,1.63,0.54,2.45c0.14,0.82,0.28,1.63,0.41,2.43c0.27,1.61,0.51,3.18,0.69,4.68c0.3,3.01,0.26,5.75-0.11,7.9
						c0.66,4.03,0.58-5.83,1.42,1.94c0.27,3.91-0.44,4.27-0.65,4.1c0.1,1.17,0.2,2.36,0.31,3.57c-1.34,1.44-2.57,0.38-3.85-3.98
						c-0.31-1.09-0.63-2.39-0.94-3.91c-0.36-1.52-0.78-3.26-1.18-5.23c-0.2-0.99-0.4-2.03-0.62-3.14c-0.26-1.1-0.53-2.26-0.81-3.48
						c-0.27-1.22-0.55-2.5-0.84-3.85C356.45,169.57,356.09,168.17,355.71,166.7z"/>
				</g>
			</g>
		</g>
	</g>
</g>
</svg>
