<?xml version="1.0" encoding="utf-8"?>
<!-- Generator: Adobe Illustrator 24.0.0, SVG Export Plug-In . SVG Version: 6.00 Build 0)  -->
<svg version="1.1" id="Layer_1" xmlns="http://www.w3.org/2000/svg" xmlns:xlink="http://www.w3.org/1999/xlink" x="0px" y="0px"
	 viewBox="0 0 400 400" style="enable-background:new 0 0 400 400;" xml:space="preserve">
<style type="text/css">
	.st0{fill:#050505;stroke:#000000;stroke-miterlimit:10;}
	.st1{fill:none;}
</style>
<polygon class="st0" points="145.7,97.5 254.8,97.5 259,232 142.5,232 "/>
<g>
	<line class="st1" x1="277.2" y1="316" x2="181" y2="115.6"/>
	<g>
		<path d="M282.9,312.1c-0.9-1.8-1.7-3.6-2.6-5.4c-2.3-4.9-4.7-9.7-7-14.6c-3.4-7.2-6.9-14.3-10.3-21.5c-4.2-8.8-8.4-17.6-12.6-26.3
			c-4.6-9.6-9.2-19.2-13.8-28.8c-4.6-9.7-9.3-19.3-13.9-29c-4.3-9-8.7-18.1-13-27.1c-3.7-7.6-7.3-15.3-11-22.9
			c-2.6-5.5-5.3-11-7.9-16.5c-1.2-2.6-2.5-5.2-3.7-7.8c-0.1-0.1-0.1-0.2-0.2-0.3c-1.7-3.5-6.2-4.9-9.1-2.7
			c-3.1,2.3-4.2,6.6-2.4,10.4c0.9,1.8,1.7,3.6,2.6,5.4c2.3,4.9,4.7,9.7,7,14.6c3.4,7.2,6.9,14.3,10.3,21.5
			c4.2,8.8,8.4,17.6,12.6,26.3c4.6,9.6,9.2,19.2,13.8,28.8c4.6,9.7,9.3,19.3,13.9,29c4.3,9,8.7,18.1,13,27.1
			c3.7,7.6,7.3,15.3,11,22.9c2.6,5.5,5.3,11,7.9,16.5c1.2,2.6,2.5,5.2,3.7,7.8c0.1,0.1,0.1,0.2,0.2,0.3c1.7,3.5,6.2,4.9,9.1,2.7
			C283.7,320.2,284.7,315.9,282.9,312.1L282.9,312.1z"/>
	</g>
</g>
<g>
	<line class="st1" x1="132" y1="315.5" x2="215.5" y2="116.1"/>
	<g>
		<path d="M138,319.3c0.7-1.8,1.5-3.5,2.2-5.3c2-4.9,4.1-9.7,6.1-14.5c3-7.1,6-14.3,9-21.4c3.7-8.8,7.3-17.5,11-26.3
			c4-9.6,8-19.1,12-28.6c4-9.6,8.1-19.3,12.1-28.9c3.8-9,7.5-18,11.3-27c3.2-7.6,6.4-15.3,9.6-22.9c2.3-5.5,4.6-10.9,6.9-16.4
			c1.1-2.6,2.2-5.2,3.3-7.8c0-0.1,0.1-0.2,0.1-0.3c0.8-1.9,1.2-3.7,0.7-5.8c-0.4-1.7-1.7-3.6-3.2-4.5c-3-1.7-7.9-1.1-9.5,2.7
			c-0.7,1.8-1.5,3.5-2.2,5.3c-2,4.8-4.1,9.7-6.1,14.5c-3,7.1-6,14.3-9,21.4c-3.7,8.8-7.3,17.5-11,26.3c-4,9.6-8,19.1-12,28.6
			c-4,9.6-8.1,19.3-12.1,28.9c-3.8,9-7.5,18-11.3,27c-3.2,7.6-6.4,15.3-9.6,22.9c-2.3,5.5-4.6,10.9-6.9,16.4
			c-1.1,2.6-2.2,5.2-3.3,7.8c0,0.1-0.1,0.2-0.1,0.3c-0.8,1.9-1.2,3.7-0.7,5.8c0.4,1.7,1.7,3.6,3.2,4.5
			C131.5,323.7,136.4,323.1,138,319.3L138,319.3z"/>
	</g>
</g>
<g>
	<line class="st1" x1="200.7" y1="307.9" x2="199.3" y2="61.4"/>
	<g>
		<path d="M208.2,307.9c0-2.2,0-4.4,0-6.6c0-6-0.1-12-0.1-18c0-8.8-0.1-17.6-0.1-26.5c-0.1-10.8-0.1-21.7-0.2-32.5
			c-0.1-11.8-0.1-23.6-0.2-35.4c-0.1-11.9-0.1-23.9-0.2-35.8c-0.1-11.1-0.1-22.3-0.2-33.4c0-9.4-0.1-18.7-0.1-28.1
			c0-6.8-0.1-13.5-0.1-20.3c0-3.2,0-6.4-0.1-9.6c0-0.1,0-0.3,0-0.4c0-3.9-3.5-7.7-7.5-7.5c-4.1,0.2-7.5,3.3-7.5,7.5
			c0,2.2,0,4.4,0,6.6c0,6,0.1,12,0.1,18c0,8.8,0.1,17.6,0.1,26.5c0.1,10.8,0.1,21.7,0.2,32.5c0.1,11.8,0.1,23.6,0.2,35.4
			c0.1,11.9,0.1,23.9,0.2,35.8c0.1,11.1,0.1,22.3,0.2,33.4c0,9.4,0.1,18.7,0.1,28.1c0,6.8,0.1,13.5,0.1,20.3c0,3.2,0,6.4,0.1,9.6
			c0,0.1,0,0.3,0,0.4c0,3.9,3.5,7.7,7.5,7.5C204.8,315.2,208.2,312.1,208.2,307.9L208.2,307.9z"/>
	</g>
</g>
<g>
	<line class="st1" x1="130" y1="231.5" x2="273" y2="231.5"/>
	<g>
		<path d="M130,239c4.8,0,9.5,0,14.3,0c11.4,0,22.7,0,34.1,0c13.8,0,27.6,0,41.3,0c11.9,0,23.8,0,35.7,0c5.8,0,11.6,0.1,17.3,0
			c0.1,0,0.2,0,0.3,0c3.9,0,7.7-3.4,7.5-7.5c-0.2-4.1-3.3-7.5-7.5-7.5c-4.8,0-9.5,0-14.3,0c-11.4,0-22.7,0-34.1,0
			c-13.8,0-27.6,0-41.3,0c-11.9,0-23.8,0-35.7,0c-5.8,0-11.6-0.1-17.3,0c-0.1,0-0.2,0-0.3,0c-3.9,0-7.7,3.4-7.5,7.5
			C122.7,235.6,125.8,239,130,239L130,239z"/>
	</g>
</g>
</svg>
