<?xml version="1.0" encoding="utf-8"?>
<!-- Generator: Adobe Illustrator 24.0.0, SVG Export Plug-In . SVG Version: 6.00 Build 0)  -->
<svg version="1.1" id="Layer_1" xmlns="http://www.w3.org/2000/svg" xmlns:xlink="http://www.w3.org/1999/xlink" x="0px" y="0px"
	 viewBox="0 0 400 400" style="enable-background:new 0 0 400 400;" xml:space="preserve">
<style type="text/css">
	.st0{fill:none;}
	.st1{display:none;}
	.st2{display:inline;}
	.st3{fill:#202020;}
	.st4{display:inline;fill:none;stroke:#000000;stroke-width:2;stroke-miterlimit:10;}
</style>
<g>
	<line class="st0" x1="148.3" y1="143.9" x2="291.3" y2="143.9"/>
	<g>
		<path d="M148.3,151.4c41.8,0,83.7,0,125.5,0c5.8,0,11.7,0,17.5,0c9.6,0,9.7-15,0-15c-41.8,0-83.7,0-125.5,0c-5.8,0-11.7,0-17.5,0
			C138.6,136.4,138.6,151.4,148.3,151.4L148.3,151.4z"/>
	</g>
</g>
<g>
	<line class="st0" x1="151.4" y1="191.1" x2="291.3" y2="192.4"/>
	<g>
		<path d="M151.4,198.6c40.9,0.4,81.8,0.7,122.7,1.1c5.7,0.1,11.5,0.1,17.2,0.1c9.6,0.1,9.7-14.9,0-15c-40.9-0.4-81.8-0.7-122.7-1.1
			c-5.7-0.1-11.5-0.1-17.2-0.1C141.8,183.5,141.8,198.5,151.4,198.6L151.4,198.6z"/>
	</g>
</g>
<g>
	<line class="st0" x1="150.2" y1="238.4" x2="291.3" y2="238.4"/>
	<g>
		<path d="M150.2,245.9c41.1,0,82.3,0,123.4,0c5.9,0,11.8,0,17.7,0c9.6,0,9.7-15,0-15c-41.1,0-82.3,0-123.4,0c-5.9,0-11.8,0-17.7,0
			C140.5,230.9,140.5,245.9,150.2,245.9L150.2,245.9z"/>
	</g>
</g>
<g>
	<g>
		<path d="M112.9,155.4c15.4,0,15.5-24,0-24C97.4,131.4,97.4,155.4,112.9,155.4L112.9,155.4z"/>
	</g>
</g>
<g>
	<g>
		<path d="M112.7,201.3c15.4,0,15.5-24,0-24C97.3,177.3,97.2,201.3,112.7,201.3L112.7,201.3z"/>
	</g>
</g>
<g>
	<g>
		<path d="M112.7,246.1c15.4,0,15.5-24,0-24C97.3,222.1,97.2,246.1,112.7,246.1L112.7,246.1z"/>
	</g>
</g>
<g id="Layer_2_1_" class="st1">
	<g class="st2">
		<line class="st0" x1="138" y1="190" x2="279" y2="190"/>
		<g>
			<g>
				<g>
					<path class="st3" d="M278.8,228.4c-5-1.1-9.6,1.6-14.8,1.9c-5.1,0.3-9.6-0.1-14.6-0.3c-10.4-0.4-19.4-2.1-29.9-1.5
						c-4.2,0.2-81.1-6-81.5,0.5c-0.1,1.4,12,1.9,12.6,2.1c11.9,4.2,60.5,7.6,69,6.4c15.5-2.1,29-3.4,44.6-5.5
						c5.1-0.6,9.7-3.7,14.7-2.8c0.1,0,0.2-0.2,0.2-0.4C279,228.6,278.9,228.3,278.8,228.4z"/>
					<path class="st3" d="M278.8,207.4c-5-1.1-9.6,1.6-14.8,1.9c-5.1,0.3-9.6-0.1-14.6-0.3c-10.4-0.4-19.4-2.1-29.9-1.5
						c-4.2,0.2-81.1-6-81.5,0.5c-0.1,1.4,12,1.9,12.6,2.1c11.9,4.2,60.5,7.6,69,6.4c15.5-2.1,29-3.4,44.6-5.5
						c5.1-0.6,9.7-3.7,14.7-2.8c0.1,0,0.2-0.2,0.2-0.4C279,207.6,278.9,207.4,278.8,207.4z"/>
					<path class="st3" d="M278.8,186.5c-5-1.1-9.6,1.6-14.8,1.9c-5.1,0.3-9.6-0.1-14.6-0.3c-10.4-0.4-19.4-2.1-29.9-1.5
						c-4.2,0.2-81.1-6-81.5,0.5c-0.1,1.4,12,1.9,12.6,2.1c11.9,4.2,60.5,7.6,69,6.4c15.5-2.1,29-3.4,44.6-5.5
						c5.1-0.6,9.7-3.7,14.7-2.8c0.1,0,0.2-0.2,0.2-0.4C279,186.7,278.9,186.5,278.8,186.5z"/>
					<path class="st3" d="M278.8,165.5c-5-1.1-9.6,1.6-14.8,1.9c-5.1,0.3-9.6-0.1-14.6-0.3c-10.4-0.4-19.4-2.1-29.9-1.5
						c-4.2,0.2-81.1-6-81.5,0.5c-0.1,1.4,12,1.9,12.6,2.1c11.9,4.2,60.5,7.6,69,6.4c15.5-2.1,29-3.4,44.6-5.5
						c5.1-0.6,9.7-3.7,14.7-2.8c0.1,0,0.2-0.2,0.2-0.4C279,165.8,278.9,165.5,278.8,165.5z"/>
					<path class="st3" d="M278.8,144.6c-5-1.1-9.6,1.6-14.8,1.9c-5.1,0.3-9.6-0.1-14.6-0.3c-10.4-0.4-19.4-2.1-29.9-1.5
						c-4.2,0.2-81.1-6-81.5,0.5c-0.1,1.4,12,1.9,12.6,2.1c11.9,4.2,60.5,7.6,69,6.4c15.5-2.1,29-3.4,44.6-5.5
						c5.1-0.6,9.7-3.7,14.7-2.8c0.1,0,0.2-0.2,0.2-0.4C279,144.8,278.9,144.6,278.8,144.6z"/>
				</g>
			</g>
		</g>
	</g>
	<ellipse class="st4" cx="204.5" cy="190.5" rx="121.5" ry="116.5"/>
</g>
</svg>
