<?xml version="1.0" encoding="utf-8"?>
<!-- Generator: Adobe Illustrator 24.0.0, SVG Export Plug-In . SVG Version: 6.00 Build 0)  -->
<svg version="1.1" xmlns="http://www.w3.org/2000/svg" xmlns:xlink="http://www.w3.org/1999/xlink" x="0px" y="0px"
	 viewBox="0 0 400 400" style="enable-background:new 0 0 400 400;" xml:space="preserve">
<style type="text/css">
	.st0{fill:#FFFFFF;}
	.st1{display:none;}
	.st2{display:inline;}
	.st3{fill:#202020;}
	.st4{display:inline;fill:none;stroke:#000000;stroke-width:2;stroke-miterlimit:10;}
</style>
<g id="Layer_1">
	<g>
		<g>
			<line class="st0" x1="148.29" y1="143.91" x2="291.3" y2="143.91"/>
			<g>
				<path d="M148.29,151.41c41.83,0,83.67,0,125.5,0c5.84,0,11.68,0,17.51,0c9.65,0,9.67-15,0-15c-41.83,0-83.67,0-125.5,0
					c-5.84,0-11.68,0-17.51,0C138.64,136.41,138.62,151.41,148.29,151.41L148.29,151.41z"/>
			</g>
		</g>
		<g>
			<line class="st0" x1="151.41" y1="191.13" x2="291.3" y2="192.37"/>
			<g>
				<path d="M151.41,198.63c40.9,0.36,81.8,0.73,122.69,1.09c5.73,0.05,11.46,0.1,17.2,0.15c9.65,0.09,9.66-14.91,0-15
					c-40.9-0.36-81.8-0.73-122.69-1.09c-5.73-0.05-11.46-0.1-17.2-0.15C141.76,183.54,141.75,198.54,151.41,198.63L151.41,198.63z"
					/>
			</g>
		</g>
		<g>
			<line class="st0" x1="150.16" y1="238.35" x2="291.3" y2="238.35"/>
			<g>
				<path d="M150.16,245.85c41.13,0,82.27,0,123.4,0c5.91,0,11.82,0,17.74,0c9.65,0,9.67-15,0-15c-41.13,0-82.27,0-123.4,0
					c-5.91,0-11.82,0-17.74,0C140.51,230.85,140.5,245.85,150.16,245.85L150.16,245.85z"/>
			</g>
		</g>
		<g>
			<g>
				<path d="M354.83,197.19c-0.15,30.28-10.17,59.68-28.35,83.89c-2.29,3.04-4.76,5.92-7.2,8.84c-2.8,3.35,2.67-2.97,2.81-2.91
					c-0.07-0.03-1.62,1.58-1.87,1.82c-1.83,1.75-3.7,3.45-5.61,5.1c-5.66,4.89-11.68,9.38-17.97,13.42
					c-13.11,8.42-27.43,14.91-42.37,19.31c-60.99,17.95-130.74,0.13-172.74-48.38c-40.18-46.4-46.1-114.21-13.12-166.28
					c4.25-6.71,9.15-12.81,14.24-18.89c2.28-2.73-5.4,5.35-2.78,2.94c0.64-0.59,1.25-1.22,1.88-1.81c1.68-1.59,3.39-3.14,5.14-4.65
					c2.82-2.44,5.73-4.77,8.72-7c12.37-9.24,26.08-16.65,40.54-22.03c30.37-11.31,63.99-13.58,95.66-6.77
					c59.63,12.82,110.95,59.46,121.17,120.84C354.22,182.07,354.8,189.62,354.83,197.19c0-1.02,4.44-4.56,5.22-5.39
					c0.91-0.96,5.12-4.11,5.11-5.49c-0.32-66.34-48.51-121.98-110.9-140.34c-32.89-9.68-68.71-9.2-101.31,1.43
					c-15.38,5.01-30.03,12.28-43.27,21.58C96.4,78.31,85.1,89.86,74.21,101.83c-20.96,23.03-34.63,52.13-37.35,83.28
					c-2.8,32.02,5.93,64.22,24.06,90.71c38.2,55.82,110.87,79.58,175.65,63.69c31.54-7.73,59-24.57,81.37-47.9
					c11.14-11.62,21.54-23.53,29.45-37.63c7.62-13.59,12.98-28.43,15.69-43.79c1.39-7.89,2.05-15.87,2.08-23.88
					c-0.01,1.04-4.43,4.55-5.22,5.39C359.02,192.67,354.84,195.79,354.83,197.19z"/>
			</g>
		</g>
		<g>
			<g>
				<path d="M112.86,155.41c15.44,0,15.47-24,0-24C97.41,131.41,97.39,155.41,112.86,155.41L112.86,155.41z"/>
			</g>
		</g>
		<g>
			<g>
				<path d="M112.7,201.31c15.44,0,15.47-24,0-24C97.25,177.31,97.23,201.31,112.7,201.31L112.7,201.31z"/>
			</g>
		</g>
		<g>
			<g>
				<path d="M112.7,246.05c15.44,0,15.47-24,0-24C97.25,222.05,97.23,246.05,112.7,246.05L112.7,246.05z"/>
			</g>
		</g>
	</g>
</g>
<g id="Layer_2" class="st1">
	<g class="st2">
		<line class="st0" x1="138" y1="190" x2="279" y2="190"/>
		<g>
			<g>
				<g>
					<path class="st3" d="M278.81,228.35c-4.96-1.05-9.57,1.56-14.78,1.9c-5.12,0.33-9.57-0.06-14.62-0.28
						c-10.35-0.39-19.44-2.1-29.93-1.47c-4.19,0.24-81.06-5.96-81.48,0.52c-0.1,1.35,11.96,1.85,12.57,2.07
						c11.87,4.21,60.53,7.59,68.97,6.42c15.54-2.11,29.04-3.42,44.58-5.53c5.12-0.65,9.71-3.68,14.67-2.76
						c0.11,0.03,0.2-0.17,0.21-0.42C279.01,228.57,278.94,228.33,278.81,228.35z"/>
					<path class="st3" d="M278.81,207.41c-4.96-1.05-9.57,1.56-14.78,1.89c-5.12,0.33-9.57-0.06-14.62-0.27
						c-10.35-0.39-19.44-2.1-29.93-1.47c-4.19,0.23-81.06-5.96-81.48,0.52c-0.1,1.35,11.96,1.85,12.57,2.07
						c11.87,4.21,60.53,7.59,68.97,6.42c15.54-2.11,29.04-3.42,44.58-5.53c5.12-0.65,9.71-3.68,14.67-2.75
						c0.11,0.03,0.2-0.18,0.21-0.42C279.01,207.63,278.94,207.39,278.81,207.41z"/>
					<path class="st3" d="M278.81,186.48c-4.96-1.05-9.57,1.56-14.78,1.89c-5.12,0.33-9.57-0.06-14.62-0.27
						c-10.35-0.39-19.44-2.1-29.93-1.47c-4.19,0.24-81.06-5.96-81.48,0.52c-0.1,1.35,11.96,1.85,12.57,2.07
						c11.87,4.21,60.53,7.59,68.97,6.43c15.54-2.11,29.04-3.42,44.58-5.53c5.12-0.65,9.71-3.68,14.67-2.75
						c0.11,0.03,0.2-0.18,0.21-0.42C279.01,186.7,278.94,186.46,278.81,186.48z"/>
					<path class="st3" d="M278.81,165.54c-4.96-1.05-9.57,1.56-14.78,1.9c-5.12,0.33-9.57-0.06-14.62-0.27
						c-10.35-0.39-19.44-2.1-29.93-1.47c-4.19,0.23-81.06-5.96-81.48,0.52c-0.1,1.35,11.96,1.85,12.57,2.07
						c11.87,4.21,60.53,7.59,68.97,6.42c15.54-2.11,29.04-3.42,44.58-5.53c5.12-0.65,9.71-3.68,14.67-2.75
						c0.11,0.03,0.2-0.17,0.21-0.41C279.01,165.76,278.94,165.52,278.81,165.54z"/>
					<path class="st3" d="M278.81,144.61c-4.96-1.05-9.57,1.56-14.78,1.9c-5.12,0.33-9.57-0.06-14.62-0.28
						c-10.35-0.39-19.44-2.1-29.93-1.47c-4.19,0.23-81.06-5.96-81.48,0.52c-0.1,1.35,11.96,1.85,12.57,2.07
						c11.87,4.21,60.53,7.59,68.97,6.42c15.54-2.11,29.04-3.42,44.58-5.53c5.12-0.65,9.71-3.68,14.67-2.76
						c0.11,0.03,0.2-0.17,0.21-0.41C279.01,144.83,278.94,144.58,278.81,144.61z"/>
				</g>
			</g>
		</g>
	</g>
	<ellipse class="st4" cx="204.5" cy="190.5" rx="121.5" ry="116.5"/>
</g>
</svg>
