<?xml version="1.0" encoding="utf-8"?>
<!-- Generator: Adobe Illustrator 24.0.0, SVG Export Plug-In . SVG Version: 6.00 Build 0)  -->
<svg version="1.1" xmlns="http://www.w3.org/2000/svg" xmlns:xlink="http://www.w3.org/1999/xlink" x="0px" y="0px"
	 viewBox="0 0 400 400" style="enable-background:new 0 0 400 400;" xml:space="preserve">
<style type="text/css">
	.st0{fill:#FFFFFF;}
	.st1{fill:none;}
	.st2{fill:#231F20;}
	.st3{fill:#FFFFFF;stroke:#000000;stroke-miterlimit:10;}
	.st4{stroke:#000000;stroke-miterlimit:10;}
</style>
<g id="Layer_1">
	<g>
		<ellipse class="st0" cx="211.5" cy="200.5" rx="122.5" ry="116.5"/>
		<g>
			<g>
				<g>
					<g>
						<g>
							<path class="st1" d="M319,200.5c-0.06,8.68-1.19,17.33-3.48,25.68l28.92,7.99c3.02-10.96,4.5-22.33,4.57-33.67H319z"/>
						</g>
						<g>
							<path class="st2" d="M331.86,204.94c-0.29,6.86-1.2,13.68-2.75,20.37l3.9,0.91c1.6-6.93,2.56-14.01,2.85-21.11L331.86,204.94
								z"/>
						</g>
						<path class="st0" d="M333.13,214.03c0.83,0.1,1.4,0.85,1.29,1.68c-0.11,0.83-0.86,1.4-1.69,1.28
							c-0.82-0.12-1.4-0.88-1.29-1.68C331.56,214.5,332.31,213.93,333.13,214.03z"/>
						<path class="st0" d="M332.25,219.92c0.82,0.14,1.35,0.92,1.2,1.75c-0.15,0.82-0.94,1.35-1.75,1.19
							c-0.81-0.17-1.35-0.95-1.2-1.75C330.66,220.31,331.44,219.78,332.25,219.92z"/>
						<path class="st0" d="M333.7,208.09c0.83,0.05,1.44,0.77,1.38,1.61c-0.07,0.83-0.79,1.45-1.61,1.37
							c-0.83-0.08-1.44-0.8-1.38-1.61C332.15,208.65,332.87,208.04,333.7,208.09z"/>
					</g>
				</g>
				<g>
					<g>
						<g>
							<path class="st1" d="M315.52,226.18c-0.65,2.07-1.18,4.17-1.96,6.19c-0.37,1.02-0.71,2.05-1.1,3.06l-1.25,3
								c-0.39,1.01-0.86,1.99-1.33,2.97l-1.4,2.94l-1.55,2.87l-0.77,1.44l-0.85,1.4l25.79,15.32l1.09-1.82l1.01-1.87l2.01-3.74
								l1.84-3.83c0.62-1.28,1.22-2.56,1.74-3.88l1.63-3.93c0.51-1.32,0.97-2.67,1.45-4c1.01-2.66,1.74-5.41,2.56-8.12
								L315.52,226.18z"/>
						</g>
						<g>
							<path class="st2" d="M326.76,233.9c-2.11,6.53-4.82,12.87-8.09,18.9l3.52,1.9c3.39-6.25,6.2-12.81,8.39-19.58L326.76,233.9z"
								/>
						</g>
						<path class="st0" d="M325.54,242.99c0.77,0.31,1.13,1.2,0.81,1.97c-0.32,0.77-1.19,1.13-1.95,0.79
							c-0.76-0.34-1.12-1.22-0.81-1.97C323.9,243.02,324.77,242.67,325.54,242.99z"/>
						<path class="st0" d="M323.12,248.43c0.75,0.36,1.07,1.25,0.71,2.01c-0.36,0.76-1.24,1.07-1.99,0.68
							c-0.73-0.37-1.05-1.27-0.7-2.01C321.49,248.39,322.37,248.08,323.12,248.43z"/>
						<path class="st0" d="M327.67,237.42c0.78,0.27,1.19,1.13,0.91,1.92c-0.28,0.79-1.13,1.19-1.91,0.89
							c-0.77-0.3-1.18-1.16-0.91-1.92C326.03,237.54,326.88,237.14,327.67,237.42z"/>
					</g>
				</g>
				<g>
					<g>
						<g>
							<path class="st1" d="M305.3,250.05l-1.69,2.8l-1.83,2.71l-0.91,1.36l-0.98,1.31l-1.96,2.62c-2.77,3.38-5.58,6.73-8.76,9.76
								l21.08,21.35c4.06-3.91,7.73-8.21,11.28-12.59l2.54-3.39l1.26-1.7l1.19-1.76l2.37-3.52l2.2-3.63L305.3,250.05z"/>
						</g>
						<g>
							<path class="st2" d="M314.13,260.47c-3.72,5.77-7.99,11.19-12.7,16.19l2.92,2.74c4.87-5.17,9.29-10.78,13.14-16.75
								L314.13,260.47z"/>
						</g>
						<path class="st0" d="M310.59,268.93c0.66,0.5,0.79,1.45,0.29,2.12c-0.53,0.65-1.48,0.75-2.13,0.23
							c-0.65-0.52-0.74-1.45-0.23-2.08C309.01,268.55,309.93,268.43,310.59,268.93z"/>
						<path class="st0" d="M306.85,273.58c0.63,0.53,0.72,1.5,0.18,2.13c-0.56,0.62-1.52,0.67-2.14,0.12
							c-0.62-0.55-0.67-1.49-0.13-2.09C305.3,273.12,306.22,273.04,306.85,273.58z"/>
						<path class="st0" d="M314.09,264.1c0.69,0.47,0.86,1.41,0.39,2.1c-0.47,0.69-1.44,0.82-2.11,0.34
							c-0.68-0.49-0.8-1.4-0.35-2.07C312.49,263.8,313.41,263.64,314.09,264.1z"/>
					</g>
				</g>
				<g>
					<g>
						<g>
							<path class="st1" d="M289.18,270.61c-6.19,6.2-13.28,11.51-20.83,16.02l15.24,25.84c9.64-5.74,18.69-12.55,26.66-20.52
								L289.18,270.61z"/>
						</g>
						<g>
							<path class="st2" d="M295.08,282.91c-5.07,4.64-10.53,8.85-16.31,12.57l2.16,3.37c5.97-3.85,11.62-8.19,16.86-12.99
								L295.08,282.91z"/>
						</g>
						<path class="st0" d="M289.56,290.26c0.52,0.66,0.39,1.59-0.27,2.09c-0.67,0.5-1.61,0.37-2.11-0.3
							c-0.5-0.67-0.37-1.6,0.28-2.08C288.11,289.49,289.05,289.62,289.56,290.26z"/>
						<path class="st0" d="M284.79,293.84c0.48,0.68,0.31,1.6-0.38,2.07c-0.69,0.47-1.63,0.29-2.09-0.4
							c-0.46-0.69-0.29-1.61,0.38-2.07C283.37,292.99,284.31,293.16,284.79,293.84z"/>
						<path class="st0" d="M294.15,286.45c0.55,0.63,0.48,1.58-0.17,2.11c-0.65,0.53-1.59,0.45-2.12-0.2
							c-0.53-0.64-0.45-1.58,0.18-2.09C292.67,285.76,293.61,285.84,294.15,286.45z"/>
					</g>
				</g>
				<g>
					<g>
						<g>
							<path class="st1" d="M268.35,286.63c-7.56,4.5-15.73,7.97-24.15,10.57l8.65,28.73c10.71-3.29,21.09-7.73,30.75-13.46
								L268.35,286.63z"/>
						</g>
						<g>
							<path class="st2" d="M271.07,300c-6.05,3.27-12.37,6.04-18.87,8.27l1.29,3.79c6.71-2.31,13.24-5.16,19.48-8.54L271.07,300z"
								/>
						</g>
						<path class="st0" d="M263.93,305.78c0.34,0.76,0,1.63-0.77,1.96c-0.77,0.33-1.65-0.02-1.97-0.79
							c-0.32-0.77,0.02-1.64,0.77-1.96C262.71,304.68,263.59,305.03,263.93,305.78z"/>
						<path class="st0" d="M258.44,308.1c0.31,0.77-0.08,1.63-0.86,1.93c-0.78,0.29-1.65-0.1-1.93-0.88
							c-0.28-0.78,0.1-1.64,0.86-1.93C257.27,306.94,258.13,307.33,258.44,308.1z"/>
						<path class="st0" d="M269.31,303.2c0.38,0.74,0.08,1.63-0.67,2c-0.75,0.37-1.65,0.06-2.01-0.69c-0.36-0.75-0.05-1.64,0.68-2
							C268.03,302.16,268.93,302.46,269.31,303.2z"/>
					</g>
				</g>
				<g>
					<g>
						<g>
							<path class="st1" d="M244.2,297.21c-8.45,2.55-17.22,4.03-26.05,4.58l1.72,29.95c11.14-0.68,22.25-2.57,32.98-5.8
								L244.2,297.21z"/>
						</g>
						<g>
							<path class="st2" d="M243.65,310.83c-6.65,1.74-13.45,2.94-20.3,3.6l0.37,3.98c7.06-0.68,14.07-1.92,20.94-3.71
								L243.65,310.83z"/>
						</g>
						<path class="st0" d="M235.35,314.76c0.16,0.82-0.39,1.59-1.21,1.73c-0.82,0.14-1.6-0.41-1.73-1.23
							c-0.13-0.82,0.41-1.59,1.21-1.73C234.42,313.39,235.19,313.94,235.35,314.76z"/>
						<path class="st0" d="M229.46,315.72c0.12,0.82-0.46,1.57-1.29,1.67c-0.83,0.1-1.58-0.48-1.67-1.31
							c-0.09-0.82,0.48-1.57,1.29-1.67C228.6,314.32,229.34,314.9,229.46,315.72z"/>
						<path class="st0" d="M241.18,313.52c0.19,0.81-0.31,1.61-1.13,1.78c-0.82,0.18-1.62-0.33-1.79-1.14
							c-0.17-0.81,0.34-1.61,1.13-1.78C240.19,312.2,240.99,312.71,241.18,313.52z"/>
					</g>
				</g>
				<g>
					<g>
						<g>
							<path class="st1" d="M218.14,301.79c-8.85,0.57-17.76-0.04-26.46-1.54l-5.2,29.55c11.02,1.9,22.24,2.65,33.38,1.94
								L218.14,301.79z"/>
						</g>
						<g>
							<path class="st2" d="M214.44,314.91c-6.88,0.14-13.77-0.18-20.59-1.16l-0.55,3.96c7.03,1.02,14.14,1.34,21.23,1.2
								L214.44,314.91z"/>
						</g>
						<path class="st0" d="M205.45,316.84c-0.04,0.84-0.74,1.47-1.57,1.4c-0.83-0.06-1.46-0.78-1.4-1.61
							c0.06-0.83,0.76-1.45,1.57-1.39C204.86,315.31,205.48,316.02,205.45,316.84z"/>
						<path class="st0" d="M199.5,316.42c-0.08,0.83-0.81,1.45-1.64,1.34c-0.83-0.1-1.42-0.85-1.33-1.67
							c0.1-0.82,0.83-1.41,1.64-1.31C198.98,314.88,199.57,315.6,199.5,316.42z"/>
						<path class="st0" d="M211.41,316.98c0,0.83-0.67,1.48-1.51,1.47c-0.83-0.02-1.49-0.71-1.47-1.54c0.02-0.83,0.7-1.48,1.51-1.46
							C210.75,315.46,211.41,316.15,211.41,316.98z"/>
					</g>
				</g>
				<g>
					<g>
						<g>
							<path class="st1" d="M191.69,300.25c-8.71-1.48-17.2-4.09-25.28-7.62l-12.02,27.49c10.28,4.49,21.07,7.79,32.1,9.67
								L191.69,300.25z"/>
						</g>
						<g>
							<path class="st2" d="M185.07,312.18c-6.72-1.43-13.35-3.37-19.74-5.93l-1.47,3.72c6.59,2.64,13.43,4.64,20.37,6.12
								L185.07,312.18z"/>
						</g>
						<path class="st0" d="M175.88,311.96c-0.23,0.79-1.07,1.29-1.86,1.02c-0.8-0.26-1.24-1.1-0.99-1.89
							c0.25-0.79,1.08-1.23,1.85-0.98C175.65,310.37,176.11,311.16,175.88,311.96z"/>
						<path class="st0" d="M170.19,310.17c-0.26,0.78-1.13,1.24-1.91,0.93c-0.78-0.29-1.18-1.16-0.9-1.94
							c0.29-0.78,1.14-1.18,1.9-0.89C170.04,308.57,170.46,309.38,170.19,310.17z"/>
						<path class="st0" d="M181.65,313.48c-0.19,0.8-1.01,1.33-1.81,1.1c-0.81-0.22-1.29-1.04-1.08-1.84
							c0.21-0.8,1.02-1.28,1.81-1.07C181.34,311.9,181.84,312.67,181.65,313.48z"/>
					</g>
				</g>
				<g>
					<g>
						<g>
							<path class="st1" d="M166.41,292.63c-8.1-3.48-15.69-8.06-22.68-13.37l-18.28,23.79c8.94,6.81,18.63,12.63,28.94,17.07
								L166.41,292.63z"/>
						</g>
						<g>
							<path class="st2" d="M157.16,302.67c-6.2-2.98-12.15-6.47-17.76-10.44l-2.32,3.26c5.8,4.1,11.94,7.71,18.34,10.78
								L157.16,302.67z"/>
						</g>
						<path class="st0" d="M148.29,300.28c-0.42,0.73-1.33,0.97-2.04,0.53c-0.71-0.43-0.94-1.36-0.51-2.07
							c0.43-0.71,1.34-0.94,2.04-0.52C148.46,298.66,148.7,299.57,148.29,300.28z"/>
						<path class="st0" d="M143.19,297.19c-0.45,0.71-1.37,0.9-2.06,0.43c-0.69-0.47-0.88-1.4-0.41-2.09
							c0.47-0.69,1.39-0.87,2.06-0.42C143.44,295.57,143.63,296.5,143.19,297.19z"/>
						<path class="st0" d="M153.53,303.12c-0.38,0.75-1.29,1.04-2.02,0.63c-0.73-0.4-1.01-1.31-0.61-2.04c0.4-0.73,1.3-1,2.01-0.61
							C153.62,301.5,153.9,302.39,153.53,303.12z"/>
					</g>
				</g>
				<g>
					<g>
						<g>
							<path class="st1" d="M143.73,279.26c-0.9-0.64-1.72-1.36-2.57-2.05c-0.84-0.71-1.71-1.38-2.53-2.11
								c-1.6-1.49-3.29-2.9-4.8-4.49c-3.17-3.03-5.99-6.38-8.76-9.76l-23.6,18.52c3.55,4.38,7.22,8.68,11.28,12.59
								c1.96,2.03,4.1,3.85,6.17,5.76c1.05,0.93,2.16,1.8,3.24,2.7c1.09,0.89,2.16,1.81,3.3,2.63L143.73,279.26z"/>
						</g>
						<g>
							<path class="st2" d="M132.35,286.77c-5.29-4.39-10.2-9.23-14.65-14.46l-3.05,2.59c4.61,5.41,9.68,10.42,15.15,14.95
								L132.35,286.77z"/>
						</g>
						<path class="st0" d="M124.33,282.3c-0.58,0.6-1.52,0.6-2.11,0.02c-0.59-0.59-0.59-1.54,0-2.12c0.59-0.58,1.54-0.59,2.11-0.01
							C124.9,280.75,124.9,281.7,124.33,282.3z"/>
						<path class="st0" d="M120.14,278.06c-0.6,0.57-1.55,0.53-2.11-0.09c-0.56-0.62-0.52-1.56,0.1-2.12
							c0.62-0.55,1.56-0.51,2.11,0.09C120.79,276.54,120.74,277.49,120.14,278.06z"/>
						<path class="st0" d="M128.72,286.33c-0.55,0.63-1.49,0.68-2.1,0.12c-0.62-0.56-0.67-1.51-0.1-2.12
							c0.56-0.61,1.5-0.66,2.11-0.12C129.21,284.76,129.26,285.71,128.72,286.33z"/>
					</g>
				</g>
				<g>
					<g>
						<g>
							<path class="st1" d="M125.07,260.85l-1.96-2.62l-0.98-1.31l-0.91-1.36l-1.83-2.71l-1.69-2.8l-0.85-1.4l-0.77-1.44l-1.55-2.87
								l-1.4-2.94c-0.48-0.98-0.94-1.96-1.33-2.97l-27.59,11.79c0.52,1.32,1.12,2.6,1.74,3.88l1.84,3.83l2.01,3.74l1.01,1.87
								l1.09,1.82l2.2,3.63l2.37,3.52l1.19,1.76l1.26,1.7l2.54,3.39L125.07,260.85z"/>
						</g>
						<g>
							<path class="st2" d="M112.19,265.3c-4.02-5.57-7.54-11.49-10.49-17.69l-3.61,1.72c3.06,6.42,6.7,12.56,10.86,18.32
								L112.19,265.3z"/>
						</g>
						<path class="st0" d="M105.57,258.95c-0.71,0.44-1.63,0.21-2.06-0.51c-0.43-0.72-0.2-1.63,0.52-2.04
							c0.72-0.41,1.64-0.18,2.06,0.51C106.51,257.6,106.28,258.52,105.57,258.95z"/>
						<path class="st0" d="M102.6,253.78c-0.73,0.4-1.64,0.12-2.04-0.61c-0.4-0.74-0.12-1.64,0.62-2.01
							c0.74-0.37,1.65-0.1,2.04,0.62C103.6,252.49,103.32,253.39,102.6,253.78z"/>
						<path class="st0" d="M108.81,263.96c-0.68,0.47-1.62,0.29-2.08-0.4c-0.47-0.69-0.28-1.62,0.42-2.07
							c0.7-0.45,1.63-0.27,2.08,0.41C109.68,262.56,109.49,263.48,108.81,263.96z"/>
					</g>
				</g>
				<g>
					<g>
						<g>
							<path class="st1" d="M111.79,238.44l-1.25-3c-0.39-1.01-0.73-2.04-1.1-3.06c-0.78-2.02-1.31-4.13-1.96-6.19
								c-1.09-4.19-2.06-8.42-2.58-12.72l-29.73,4.01c0.7,5.64,1.94,11.2,3.39,16.69c0.83,2.72,1.56,5.47,2.56,8.12
								c0.48,1.33,0.94,2.68,1.45,4l1.63,3.93L111.79,238.44z"/>
						</g>
						<g>
							<path class="st2" d="M98.17,239.43c-2.47-6.41-4.26-13.07-5.45-19.82l-3.94,0.7c1.24,7,3.1,13.91,5.65,20.55L98.17,239.43z"
								/>
						</g>
						<path class="st0" d="M93.46,231.57c-0.8,0.23-1.63-0.23-1.87-1.03c-0.25-0.8,0.28-1.64,1.07-1.84
							c0.82-0.21,1.58,0.27,1.83,1.04C94.71,230.52,94.25,231.34,93.46,231.57z"/>
						<path class="st0" d="M91.95,225.8c-0.81,0.19-1.62-0.32-1.82-1.13c-0.19-0.81,0.37-1.62,1.17-1.78
							c0.82-0.17,1.57,0.35,1.76,1.14C93.25,224.82,92.76,225.61,91.95,225.8z"/>
						<path class="st0" d="M95.27,237.25c-0.78,0.28-1.64-0.14-1.92-0.93c-0.3-0.78,0.17-1.64,0.96-1.89
							c0.8-0.25,1.6,0.18,1.89,0.94C96.47,236.13,96.06,236.97,95.27,237.25z"/>
					</g>
				</g>
				<g>
					<g>
						<g>
							<path class="st1" d="M104.91,213.47c-0.65-4.28-0.81-8.63-0.91-12.97c0.1-4.34,0.26-8.68,0.91-12.97l-29.73-4.01
								c-0.83,5.63-1.08,11.31-1.18,16.98c0.1,5.67,0.34,11.35,1.18,16.98L104.91,213.47z"/>
						</g>
						<g>
							<path class="st2" d="M91.53,210.79c-0.12-1.71-0.31-3.42-0.37-5.13l-0.14-5.15l0.14-5.15c0.06-1.71,0.25-3.42,0.37-5.13
								l-3.98-0.37c-0.12,1.77-0.32,3.54-0.38,5.32l-0.14,5.33l0.14,5.33c0.06,1.78,0.26,3.55,0.38,5.32L91.53,210.79z"/>
						</g>
						<path class="st0" d="M89.06,201.96c-0.83,0.01-1.52-0.65-1.54-1.49c0.02-0.84,0.71-1.5,1.54-1.49
							c0.83,0.01,1.48,0.68,1.46,1.49C90.54,201.28,89.89,201.94,89.06,201.96z"/>
						<path class="st0" d="M89.14,195.99c-0.83-0.03-1.48-0.73-1.46-1.57c0.07-0.83,0.79-1.46,1.62-1.41
							c0.83,0.06,1.44,0.76,1.38,1.57C90.65,195.39,89.97,196.03,89.14,195.99z"/>
						<path class="st0" d="M89.29,207.91c-0.83,0.06-1.55-0.57-1.61-1.41c-0.02-0.84,0.63-1.54,1.46-1.57
							c0.83-0.03,1.52,0.6,1.54,1.41C90.73,207.16,90.12,207.86,89.29,207.91z"/>
					</g>
				</g>
				<g>
					<g>
						<g>
							<path class="st1" d="M104.91,187.53c0.52-4.3,1.48-8.53,2.58-12.72c0.65-2.07,1.18-4.17,1.96-6.19
								c0.37-1.02,0.71-2.05,1.1-3.06l1.25-3l-27.59-11.79l-1.63,3.93c-0.51,1.32-0.97,2.67-1.45,4c-1.01,2.66-1.74,5.41-2.56,8.12
								c-1.45,5.49-2.69,11.05-3.39,16.69L104.91,187.53z"/>
						</g>
						<g>
							<path class="st2" d="M92.72,181.41c1.19-6.75,2.98-13.41,5.45-19.82l-3.74-1.42c-2.56,6.64-4.41,13.54-5.65,20.55
								L92.72,181.41z"/>
						</g>
						<path class="st0" d="M92.67,172.23c-0.79-0.21-1.32-1.04-1.06-1.84c0.24-0.8,1.08-1.26,1.87-1.03
							c0.8,0.23,1.25,1.05,1.02,1.83C94.25,171.96,93.48,172.44,92.67,172.23z"/>
						<path class="st0" d="M94.33,166.51c-0.79-0.25-1.25-1.11-0.96-1.89c0.28-0.79,1.14-1.21,1.92-0.93
							c0.78,0.28,1.19,1.12,0.92,1.88C95.93,166.33,95.12,166.76,94.33,166.51z"/>
						<path class="st0" d="M91.32,178.04c-0.8-0.16-1.37-0.97-1.17-1.78c0.2-0.81,1.01-1.32,1.82-1.13c0.81,0.19,1.3,0.98,1.11,1.77
							C92.88,177.69,92.14,178.21,91.32,178.04z"/>
					</g>
				</g>
				<g>
					<g>
						<g>
							<path class="st1" d="M111.79,162.56c0.39-1.01,0.86-1.99,1.33-2.97l1.4-2.94l1.55-2.87l0.77-1.44l0.85-1.4l1.69-2.8
								l1.83-2.71l0.91-1.36l0.98-1.31l1.96-2.62l-23.6-18.52l-2.54,3.39l-1.26,1.7l-1.19,1.76L94.11,132l-2.2,3.63l-1.09,1.82
								l-1.01,1.87l-2.01,3.74l-1.84,3.83c-0.62,1.28-1.22,2.56-1.74,3.88L111.79,162.56z"/>
						</g>
						<g>
							<path class="st2" d="M101.69,153.41c2.95-6.2,6.47-12.13,10.49-17.69l-3.24-2.35c-4.16,5.76-7.81,11.9-10.86,18.32
								L101.69,153.41z"/>
						</g>
						<path class="st0" d="M104.06,144.54c-0.72-0.41-0.95-1.33-0.52-2.04c0.43-0.72,1.35-0.95,2.06-0.51
							c0.71,0.44,0.94,1.35,0.52,2.04C105.71,144.73,104.78,144.96,104.06,144.54z"/>
						<path class="st0" d="M107.18,139.46c-0.7-0.45-0.88-1.38-0.42-2.07c0.47-0.69,1.4-0.88,2.08-0.4c0.68,0.47,0.87,1.4,0.41,2.07
							C108.81,139.73,107.88,139.91,107.18,139.46z"/>
						<path class="st0" d="M101.21,149.78c-0.74-0.38-1.02-1.28-0.62-2.01c0.4-0.74,1.31-1.01,2.04-0.61c0.73,0.4,1,1.3,0.62,2.01
							C102.86,149.88,101.95,150.15,101.21,149.78z"/>
					</g>
				</g>
				<g>
					<g>
						<g>
							<path class="st1" d="M125.07,140.15c2.77-3.38,5.58-6.73,8.76-9.76c1.51-1.59,3.2-2.99,4.8-4.49
								c0.82-0.73,1.69-1.4,2.53-2.11c0.85-0.69,1.68-1.42,2.57-2.05l-18.28-23.79c-1.14,0.82-2.21,1.74-3.3,2.63
								c-1.08,0.9-2.18,1.77-3.24,2.7c-2.07,1.9-4.22,3.73-6.17,5.76c-4.06,3.91-7.73,8.21-11.28,12.59L125.07,140.15z"/>
						</g>
						<g>
							<path class="st2" d="M117.68,128.71c4.45-5.23,9.36-10.07,14.65-14.46l-2.55-3.08c-5.47,4.54-10.54,9.54-15.15,14.95
								L117.68,128.71z"/>
						</g>
						<path class="st0" d="M122.26,120.76c-0.59-0.58-0.59-1.53,0-2.12c0.59-0.59,1.54-0.59,2.11,0.01c0.57,0.6,0.57,1.55,0,2.12
							C123.8,121.34,122.86,121.34,122.26,120.76z"/>
						<path class="st0" d="M126.56,116.62c-0.56-0.61-0.51-1.56,0.1-2.12c0.62-0.56,1.56-0.51,2.11,0.12
							c0.54,0.63,0.5,1.58-0.11,2.12C128.06,117.28,127.12,117.23,126.56,116.62z"/>
						<path class="st0" d="M118.18,125.1c-0.62-0.55-0.66-1.5-0.1-2.12c0.56-0.62,1.51-0.66,2.11-0.09c0.6,0.57,0.65,1.52,0.1,2.12
							C119.74,125.61,118.8,125.65,118.18,125.1z"/>
					</g>
				</g>
				<g>
					<g>
						<g>
							<path class="st1" d="M143.73,121.74c6.99-5.32,14.58-9.9,22.68-13.37l-12.02-27.49c-10.3,4.44-20,10.26-28.94,17.07
								L143.73,121.74z"/>
						</g>
						<g>
							<path class="st2" d="M139.38,108.78c5.61-3.97,11.56-7.46,17.76-10.44l-1.74-3.6c-6.4,3.08-12.54,6.68-18.34,10.79
								L139.38,108.78z"/>
						</g>
						<path class="st0" d="M145.79,102.22c-0.43-0.71-0.2-1.63,0.51-2.07c0.71-0.44,1.63-0.2,2.05,0.53
							c0.41,0.71,0.17,1.62-0.52,2.05C147.14,103.16,146.23,102.93,145.79,102.22z"/>
						<path class="st0" d="M150.97,99.25c-0.4-0.73-0.12-1.64,0.61-2.04c0.73-0.41,1.64-0.11,2.02,0.63
							c0.37,0.74,0.09,1.62-0.62,2.02C152.26,100.25,151.36,99.98,150.97,99.25z"/>
						<path class="st0" d="M140.77,105.43c-0.47-0.69-0.28-1.62,0.41-2.09c0.69-0.47,1.62-0.28,2.07,0.43
							c0.44,0.69,0.25,1.62-0.42,2.08C142.16,106.3,141.24,106.12,140.77,105.43z"/>
					</g>
				</g>
				<g>
					<g>
						<g>
							<path class="st1" d="M166.41,108.37c8.07-3.52,16.56-6.13,25.28-7.62l-5.2-29.55c-11.03,1.89-21.82,5.19-32.1,9.67
								L166.41,108.37z"/>
						</g>
						<g>
							<path class="st2" d="M165.31,94.75c6.38-2.56,13.01-4.5,19.74-5.93l-0.83-3.91c-6.94,1.48-13.78,3.48-20.37,6.12
								L165.31,94.75z"/>
						</g>
						<path class="st0" d="M173.1,89.89c-0.25-0.79,0.19-1.64,0.99-1.89c0.79-0.27,1.64,0.23,1.86,1.02c0.23,0.81-0.23,1.59-1,1.85
							C174.18,91.12,173.35,90.68,173.1,89.89z"/>
						<path class="st0" d="M178.83,88.24c-0.21-0.8,0.27-1.63,1.07-1.84c0.8-0.23,1.63,0.31,1.81,1.11c0.19,0.82-0.31,1.58-1.09,1.8
							C179.85,89.52,179.04,89.04,178.83,88.24z"/>
						<path class="st0" d="M167.45,91.81c-0.29-0.78,0.11-1.65,0.89-1.94c0.78-0.31,1.65,0.16,1.91,0.93c0.27,0.8-0.16,1.6-0.91,1.9
							C168.59,92.99,167.74,92.59,167.45,91.81z"/>
					</g>
				</g>
				<g>
					<g>
						<g>
							<path class="st1" d="M191.69,100.75c8.7-1.5,17.61-2.11,26.46-1.54l1.72-29.95c-11.14-0.7-22.35,0.04-33.38,1.94
								L191.69,100.75z"/>
						</g>
						<g>
							<path class="st2" d="M193.83,87.26c6.81-0.98,13.71-1.3,20.59-1.17l0.09-4c-7.09-0.14-14.2,0.19-21.23,1.2L193.83,87.26z"/>
						</g>
						<path class="st0" d="M202.54,84.36c-0.06-0.83,0.57-1.55,1.4-1.61c0.83-0.07,1.54,0.57,1.57,1.41
							c0.04,0.82-0.59,1.52-1.4,1.59C203.31,85.81,202.6,85.19,202.54,84.36z"/>
						<path class="st0" d="M208.5,84.09c-0.02-0.83,0.64-1.52,1.47-1.54c0.83-0.02,1.51,0.63,1.51,1.47c0,0.83-0.66,1.52-1.47,1.54
							C209.2,85.57,208.52,84.92,208.5,84.09z"/>
						<path class="st0" d="M196.61,84.91c-0.1-0.83,0.5-1.57,1.32-1.67c0.83-0.11,1.56,0.51,1.64,1.34
							c0.07,0.83-0.52,1.53-1.33,1.64C197.44,86.32,196.7,85.73,196.61,84.91z"/>
					</g>
				</g>
				<g>
					<g>
						<g>
							<path class="st1" d="M218.14,99.21c8.84,0.54,17.6,2.03,26.05,4.58l8.65-28.73c-10.73-3.23-21.84-5.13-32.98-5.8
								L218.14,99.21z"/>
						</g>
						<g>
							<path class="st2" d="M223.33,86.57c6.85,0.66,13.64,1.85,20.3,3.59l1.02-3.87c-6.87-1.79-13.88-3.03-20.94-3.71L223.33,86.57
								z"/>
						</g>
						<path class="st0" d="M232.47,85.75c0.13-0.82,0.91-1.37,1.73-1.23c0.82,0.14,1.37,0.91,1.21,1.73
							c-0.16,0.82-0.93,1.36-1.73,1.23C232.88,87.35,232.34,86.57,232.47,85.75z"/>
						<path class="st0" d="M238.33,86.86c0.17-0.81,0.97-1.32,1.78-1.14c0.82,0.18,1.32,0.98,1.13,1.78
							c-0.19,0.81-0.99,1.32-1.79,1.14C238.67,88.47,238.16,87.67,238.33,86.86z"/>
						<path class="st0" d="M226.57,84.93c0.09-0.83,0.84-1.41,1.67-1.31c0.83,0.1,1.41,0.85,1.29,1.67
							c-0.12,0.82-0.87,1.41-1.67,1.31C227.05,86.5,226.48,85.75,226.57,84.93z"/>
					</g>
				</g>
				<g>
					<g>
						<g>
							<path class="st1" d="M244.2,103.79c8.42,2.6,16.59,6.07,24.15,10.57l15.24-25.84c-9.66-5.73-20.04-10.17-30.75-13.46
								L244.2,103.79z"/>
						</g>
						<g>
							<path class="st2" d="M252.18,92.72c6.5,2.23,12.82,5,18.87,8.27l1.9-3.52c-6.24-3.38-12.77-6.23-19.49-8.54L252.18,92.72z"/>
						</g>
						<path class="st0" d="M261.26,94.07c0.32-0.77,1.2-1.12,1.97-0.79c0.77,0.33,1.11,1.21,0.77,1.96
							c-0.34,0.76-1.23,1.11-1.97,0.78C261.28,95.71,260.94,94.83,261.26,94.07z"/>
						<path class="st0" d="M266.69,96.52c0.36-0.75,1.26-1.06,2.01-0.69c0.75,0.37,1.05,1.26,0.67,2c-0.38,0.74-1.28,1.05-2.01,0.69
							C266.64,98.16,266.33,97.27,266.69,96.52z"/>
						<path class="st0" d="M255.71,91.87c0.29-0.78,1.15-1.17,1.93-0.88c0.78,0.29,1.17,1.15,0.86,1.93
							c-0.31,0.77-1.17,1.16-1.93,0.88C255.81,93.51,255.43,92.65,255.71,91.87z"/>
					</g>
				</g>
				<g>
					<g>
						<g>
							<path class="st1" d="M268.35,114.37c7.55,4.51,14.63,9.82,20.83,16.02l21.08-21.35c-7.98-7.96-17.02-14.77-26.66-20.52
								L268.35,114.37z"/>
						</g>
						<g>
							<path class="st2" d="M278.75,105.5c5.78,3.72,11.25,7.93,16.31,12.57l2.7-2.95c-5.24-4.8-10.89-9.14-16.86-12.99
								L278.75,105.5z"/>
						</g>
						<path class="st0" d="M287.23,108.99c0.5-0.67,1.44-0.8,2.11-0.3c0.67,0.5,0.79,1.43,0.27,2.09c-0.51,0.64-1.45,0.77-2.1,0.29
							C286.86,110.59,286.74,109.65,287.23,108.99z"/>
						<path class="st0" d="M291.92,112.68c0.53-0.64,1.48-0.73,2.12-0.2c0.65,0.52,0.72,1.48,0.16,2.11
							c-0.54,0.62-1.47,0.69-2.11,0.18C291.47,114.26,291.39,113.32,291.92,112.68z"/>
						<path class="st0" d="M282.38,105.53c0.46-0.69,1.4-0.87,2.09-0.4c0.69,0.47,0.87,1.39,0.38,2.07
							c-0.48,0.67-1.42,0.85-2.09,0.39C282.08,107.14,281.91,106.22,282.38,105.53z"/>
					</g>
				</g>
				<g>
					<g>
						<g>
							<path class="st1" d="M289.18,130.39c3.17,3.03,5.99,6.38,8.76,9.76l1.96,2.62l0.98,1.31l0.91,1.36l1.83,2.71l1.69,2.8
								l25.79-15.32l-2.2-3.63l-2.37-3.52l-1.19-1.76l-1.26-1.7l-2.54-3.39c-3.55-4.38-7.22-8.68-11.28-12.59L289.18,130.39z"/>
						</g>
						<g>
							<path class="st2" d="M301.41,124.33c4.71,5,8.99,10.42,12.71,16.19l3.36-2.18c-3.85-5.98-8.27-11.58-13.15-16.75
								L301.41,124.33z"/>
						</g>
						<path class="st0" d="M308.8,129.78c0.64-0.52,1.6-0.43,2.12,0.23c0.5,0.67,0.37,1.62-0.29,2.12c-0.66,0.5-1.59,0.38-2.07-0.27
							C308.06,131.22,308.15,130.3,308.8,129.78z"/>
						<path class="st0" d="M312.42,134.51c0.66-0.48,1.64-0.35,2.1,0.34c0.47,0.69,0.29,1.63-0.39,2.1
							c-0.69,0.47-1.61,0.3-2.06-0.37C311.62,135.91,311.74,135.01,312.42,134.51z"/>
						<path class="st0" d="M304.94,125.23c0.62-0.55,1.57-0.5,2.14,0.12c0.54,0.64,0.45,1.6-0.18,2.13
							c-0.64,0.54-1.56,0.46-2.09-0.16C304.27,126.72,304.32,125.78,304.94,125.23z"/>
					</g>
				</g>
				<g>
					<g>
						<g>
							<path class="st1" d="M305.3,150.95l0.85,1.4l0.77,1.44l1.55,2.87l1.4,2.94c0.48,0.98,0.94,1.96,1.33,2.97l1.25,3
								c0.39,1.01,0.73,2.04,1.1,3.06c0.78,2.02,1.31,4.13,1.96,6.19l28.92-7.99c-0.83-2.72-1.56-5.47-2.56-8.12
								c-0.48-1.33-0.94-2.68-1.45-4l-1.63-3.93c-0.52-1.32-1.12-2.6-1.74-3.88l-1.84-3.83l-2.01-3.74l-1.01-1.87l-1.09-1.82
								L305.3,150.95z"/>
						</g>
						<g>
							<path class="st2" d="M318.65,148.18c3.27,6.03,5.99,12.37,8.1,18.9l3.81-1.22c-2.19-6.77-5-13.33-8.39-19.58L318.65,148.18z"
								/>
						</g>
						<path class="st0" d="M324.43,155.33c0.76-0.34,1.63,0.02,1.95,0.79c0.32,0.77-0.04,1.65-0.81,1.97
							c-0.77,0.31-1.64-0.04-1.95-0.79C323.31,156.54,323.67,155.66,324.43,155.33z"/>
						<path class="st0" d="M326.69,160.84c0.78-0.3,1.63,0.1,1.91,0.89c0.28,0.79-0.12,1.65-0.91,1.92
							c-0.78,0.27-1.64-0.13-1.91-0.89C325.51,162,325.91,161.14,326.69,160.84z"/>
						<path class="st0" d="M321.87,149.94c0.75-0.38,1.63-0.07,1.99,0.68c0.36,0.76,0.04,1.65-0.71,2.01
							c-0.75,0.35-1.64,0.05-1.99-0.69C320.82,151.21,321.14,150.31,321.87,149.94z"/>
					</g>
				</g>
				<g>
					<g>
						<g>
							<path class="st1" d="M315.52,174.82c2.3,8.35,3.42,17,3.48,25.68h30c-0.06-11.34-1.55-22.71-4.57-33.67L315.52,174.82z"/>
						</g>
						<g>
							<path class="st2" d="M329.11,175.67c1.55,6.68,2.47,13.51,2.76,20.37l4-0.16c-0.3-7.11-1.25-14.18-2.86-21.11L329.11,175.67z
								"/>
						</g>
						<path class="st0" d="M332.75,184.09c0.82-0.12,1.57,0.45,1.68,1.28c0.11,0.83-0.46,1.58-1.29,1.68
							c-0.82,0.1-1.58-0.47-1.68-1.28C331.35,184.96,331.93,184.21,332.75,184.09z"/>
						<path class="st0" d="M333.46,190.01c0.83-0.08,1.55,0.53,1.61,1.36c0.07,0.83-0.55,1.55-1.38,1.61
							c-0.83,0.05-1.55-0.56-1.61-1.37C332.02,190.81,332.64,190.09,333.46,190.01z"/>
						<path class="st0" d="M331.72,178.22c0.81-0.17,1.6,0.36,1.75,1.18c0.15,0.82-0.38,1.6-1.2,1.75c-0.82,0.14-1.6-0.39-1.75-1.19
							C330.37,179.16,330.9,178.38,331.72,178.22z"/>
					</g>
				</g>
			</g>
		</g>
	</g>
</g>
<g id="Layer_2">
	<line class="st3" x1="209.5" y1="268.5" x2="209.5" y2="268.5"/>
	<ellipse class="st4" cx="209.5" cy="273.5" rx="34" ry="8"/>
	<path class="st4" d="M209.35,177.01c-9.86,0.33-17.19-14.21-20.59-20.94c-3.5-6.95-7.32-14.51-4.65-23.4
		c2.79-9.29,10.92-13.73,12.01-14.31c5.15-2.73,9.93-2.81,13.37-2.86c4.33-0.07,9.76-0.16,15,3c7.87,4.74,11.52,14.49,10.87,22.65
		c-0.38,4.71-2.08,7.83-5.62,13.8C221.9,168.16,216.8,176.76,209.35,177.01z"/>
	<path class="st4" d="M209.34,154.1L209.34,154.1c-1.88,0-3.2,0.34-4.24,0.96c-3.93,2.37-6.23,5.31-10.76,13.68
		c-4.32,7.98-6.48,11.97-6.83,12.76c-4.14,9.21-6.22,13.82-6,19c0.29,7.04,4.07,13.87,9,18c13.67,11.46,40.52,5.67,46.62-8.15
		c2.71-6.13,1.89-15.17-0.63-20.85c-0.84-1.89-3.3-6.63-5.02-9.83c-1.55-2.89-2.79-5.08-3.01-5.46
		C223.65,165.78,217.3,154.66,209.34,154.1z"/>
	<g>
		<path d="M210,273v-68l4-4l-4-43c-2-7.33-4-14.67-6-22"/>
		<g>
			<path d="M213,273c0-7.64,0-15.29,0-22.93c0-12.23,0-24.46,0-36.69c0-2.79,0-5.59,0-8.38c-0.29,0.71-0.59,1.41-0.88,2.12
				c1.33-1.33,2.75-2.6,4-4c1.09-1.22,0.86-2.31,0.73-3.71c-0.37-3.97-0.74-7.94-1.11-11.9c-0.87-9.36-1.74-18.72-2.61-28.07
				c-0.19-2.09-0.73-4.03-1.28-6.06c-1.65-6.06-3.3-12.12-4.96-18.17c-1.01-3.72-6.8-2.14-5.79,1.6c1.3,4.78,2.61,9.57,3.91,14.35
				c0.3,1.12,0.61,2.23,0.91,3.35c0.15,0.56,0.3,1.12,0.46,1.67c0.15,0.54,0.23,1.42,0.52,1.91c0.35,0.59,0.03-0.32,0.1,0.01
				c0.02,0.1,0.01,0.2,0.03,0.29c0.38,2.67,0.5,5.4,0.75,8.08c0.85,9.15,1.7,18.29,2.55,27.44c0.22,2.36,0.44,4.73,0.66,7.09
				c0.29-0.71,0.59-1.41,0.88-2.12c-0.95,0.95-1.9,1.9-2.86,2.86c-0.99,0.99-1.95,1.78-2.02,3.32c-0.04,0.91,0,1.84,0,2.75
				c0,5.01,0,10.03,0,15.04c0,13.42,0,26.84,0,40.26c0,3.29,0,6.59,0,9.88C207,276.86,213,276.87,213,273L213,273z"/>
		</g>
	</g>
	<path class="st4" d="M431.5,130.5"/>
</g>
</svg>
