<?xml version="1.0" encoding="utf-8"?>
<!-- Generator: Adobe Illustrator 24.0.0, SVG Export Plug-In . SVG Version: 6.00 Build 0)  -->
<svg version="1.1" id="Layer_1" xmlns="http://www.w3.org/2000/svg" xmlns:xlink="http://www.w3.org/1999/xlink" x="0px" y="0px"
	 viewBox="0 0 400 400" style="enable-background:new 0 0 400 400;" xml:space="preserve">
<style type="text/css">
	.st0{fill:#020202;stroke:#000000;stroke-miterlimit:10;}
	.st1{fill:url(#SVGID_1_);stroke:url(#SVGID_2_);stroke-miterlimit:10;}
	.st2{fill:#020202;}
	.st3{fill:#FCFCFC;}
	.st4{fill:#FFFFFF;stroke:#000000;stroke-width:3;stroke-miterlimit:10;}
	.st5{fill:#FFFFFF;stroke:#000000;stroke-width:2;stroke-miterlimit:10;}
</style>
<g>
	<path class="st0" d="M125.4,255.8"/>
	
		<linearGradient id="SVGID_1_" gradientUnits="userSpaceOnUse" x1="196.9697" y1="141.9775" x2="196.9697" y2="296.6115" gradientTransform="matrix(1 0 0 -1 0 400)">
		<stop  offset="9.793815e-02" style="stop-color:#3377FF"/>
		<stop  offset="0.1027" style="stop-color:#3173F6"/>
		<stop  offset="0.1289" style="stop-color:#285DC8"/>
		<stop  offset="0.1584" style="stop-color:#1F499D"/>
		<stop  offset="0.1901" style="stop-color:#183877"/>
		<stop  offset="0.2246" style="stop-color:#112857"/>
		<stop  offset="0.2627" style="stop-color:#0C1C3B"/>
		<stop  offset="0.3058" style="stop-color:#071125"/>
		<stop  offset="0.3561" style="stop-color:#040A14"/>
		<stop  offset="0.4182" style="stop-color:#020409"/>
		<stop  offset="0.5054" style="stop-color:#000102"/>
		<stop  offset="0.7474" style="stop-color:#000000"/>
	</linearGradient>
	
		<linearGradient id="SVGID_2_" gradientUnits="userSpaceOnUse" x1="125.7429" y1="219.2916" x2="268.1964" y2="219.2916" gradientTransform="matrix(1 0 0 -1 0 400)">
		<stop  offset="0" style="stop-color:#FFFFFF"/>
		<stop  offset="1" style="stop-color:#000000"/>
	</linearGradient>
	<path class="st1" d="M142.3,127.7c-11.9,14-13.1,29.4-15.3,57.5c-2.4,30.2,1.4,55.1,5,71.4c21.4,0.2,42.8,0.4,64.1,0.6
		c22.8,0.2,45.6,0.5,68.5,0.8c1-7.6,2.1-18,2.6-30.4c0.5-11.4,1.1-26.1-0.8-44.5c-2.6-25.2-4.5-41.7-16.9-57.1
		c-2.4-3-7.1-8.6-14.6-13.3C208.4,95.9,163.8,102.3,142.3,127.7z"/>
	<path class="st2" d="M191.2,236.7c10.3-0.5,17.9,0.1,20.5,0.3c17.8,1.5,33,2.7,45.6,12.5c9.7,7.5,23,23.9,18.5,35
		c-2.3,5.6-9.6,11.2-79.1,12c-65,0.8-72.8-3.9-75.5-9.8c-5.2-11.2,7-28.9,17.9-37.5C152.6,238.5,169.5,237.7,191.2,236.7z"/>
	<path class="st0" d="M302.8,174.8"/>
	<path class="st3" d="M221.1,244.9c0-2.2-1.2-3.6-2.9-6.1c0,0-2.7-3.5-6-11.6c-3.9-9.9-1.7-15-5.6-18.2c-1.7-1.5-4.8-2.8-11-0.7
		c-0.3-0.6-0.9-0.7-1.1-0.4c-0.2,0.2-0.2,0.6,0,1.1c-1.3,0.4-3.4,0.9-6,1.3c-3.4,0.5-3.5,0-4.3,0.4c-1,0.5-2.2,14.3-5.5,22
		c-3.1,7.4-7.7,7.9-7.1,12.2c0.7,5.3,8.3,8.4,12.2,10c6.5,2.6,12.1,2.5,16.4,2.3c5.6-0.2,11.2-0.4,16-4.3
		C217.6,251.7,221.1,248.8,221.1,244.9z"/>
	<path class="st4" d="M233.1,174.1c1,21.3-12.9,46.2-33.8,48c-21.8,1.9-41.3-22-41.3-45.7s19.5-47.7,41.3-45.7
		C219,132.5,232.3,154.8,233.1,174.1z"/>
</g>
<path class="st2" d="M64.9,267.9"/>
<path class="st4" d="M-73.1,98.6"/>
<path class="st5" d="M-110,97.5"/>
<path class="st4" d="M-129.3,33.4"/>
</svg>
