<?xml version="1.0" encoding="utf-8"?>
<!-- Generator: Adobe Illustrator 24.0.0, SVG Export Plug-In . SVG Version: 6.00 Build 0)  -->
<svg version="1.1" id="Layer_1" xmlns="http://www.w3.org/2000/svg" xmlns:xlink="http://www.w3.org/1999/xlink" x="0px" y="0px"
	 viewBox="0 0 400 400" style="enable-background:new 0 0 400 400;" xml:space="preserve">
<style type="text/css">
	.st0{fill:#020202;stroke:#000000;stroke-miterlimit:10;}
	.st1{fill:#020202;stroke:#FFFFFF;stroke-width:2;stroke-miterlimit:10;}
	.st2{fill:#FFFFFF;}
	.st3{fill:#FFFFFF;stroke:#000000;stroke-width:4;stroke-miterlimit:10;}
</style>
<path class="st0" d="M146.5,115.5c-19.1,21.8-22.4,49.8-23.2,59.3c-1.9,23.1,2.1,48.4,12.9,71.9c42.8,0.4,85.5,0.9,128.3,1.3
	c4.8-10.9,14.3-35.8,11.8-67.8c-0.9-11.8-4.5-57.7-37.1-80.1C209,79.5,169.4,89.3,146.5,115.5z"/>
<path class="st0" d="M113.5,258.4"/>
<path class="st1" d="M195.2,207c11.9-0.3,30.1,2.1,50.1,18c12.2,9.7,36.3,33.4,34.5,48.7c-0.7,5.8-5.9,18.6-53.4,15.7
	c-21.1-0.2-42.3-0.4-63.4-0.5c-5.1,0.8-35.3,5.3-37.8-12.1c-2.2-15.4,18-42.5,33.3-55.5C173.3,209,186.6,206.9,195.2,207z"/>
<g>
	<line class="st2" x1="198.8" y1="166.7" x2="198.5" y2="220.5"/>
	<g>
		<path class="st2" d="M180.8,166.7c-0.1,17.9-0.2,35.8-0.3,53.8c0,9.4,8.3,18.4,18,18c9.8-0.4,17.9-7.9,18-18
			c0.1-17.9,0.2-35.8,0.3-53.8c0-9.4-8.3-18.4-18-18C189,149.2,180.8,156.6,180.8,166.7L180.8,166.7z"/>
	</g>
</g>
<path class="st3" d="M242.4,156.2c1.1,22.2-14.7,48.1-38.5,50c-24.8,2-47-22.9-47-47.6c0-24.7,22.2-49.6,47-47.6
	C226.3,112.9,241.5,136.1,242.4,156.2z"/>
</svg>
