<?xml version="1.0" encoding="utf-8"?>
<!-- Generator: Adobe Illustrator 24.0.0, SVG Export Plug-In . SVG Version: 6.00 Build 0)  -->
<svg version="1.1" id="Layer_1" xmlns="http://www.w3.org/2000/svg" xmlns:xlink="http://www.w3.org/1999/xlink" x="0px" y="0px"
	 viewBox="0 0 400 400" style="enable-background:new 0 0 400 400;" xml:space="preserve">
<style type="text/css">
	.st0{fill:#020202;}
	.st1{fill:#020202;stroke:#000000;stroke-miterlimit:10;}
	.st2{fill:#FCFCFC;}
	.st3{fill:#FFFFFF;stroke:#000000;stroke-width:4;stroke-miterlimit:10;}
</style>
<path class="st0" d="M195.3,240.9c10.3-0.5,17.9,0.1,20.5,0.3c17.8,1.5,33,2.7,45.6,12.5c9.7,7.5,23,23.9,18.5,35
	c-2.3,5.6-9.6,11.2-79.1,12c-65,0.8-72.8-3.9-75.5-9.8c-5.2-11.2,7-28.9,17.9-37.5C156.7,242.8,173.6,242,195.3,240.9z"/>
<path class="st1" d="M147.7,131.5c-11.9,14-13.1,29.4-15.3,57.5c-2.4,30.2,1.4,55.1,5,71.4c21.4,0.2,42.8,0.4,64.1,0.6
	c22.8,0.2,45.6,0.5,68.5,0.8c1-7.6,2.1-18,2.6-30.4c0.5-11.4,1.1-26.1-0.8-44.5c-2.6-25.2-4.5-41.7-16.9-57.1
	c-2.4-3-7.1-8.6-14.6-13.3C213.9,99.7,169.3,106.1,147.7,131.5z"/>
<path class="st1" d="M113.5,258.4"/>
<path class="st1" d="M308.2,178.6"/>
<path class="st2" d="M226.6,248.7c0-2.2-1.2-3.6-2.9-6.1c0,0-2.7-3.5-6-11.6c-3.9-9.9-1.7-15-5.6-18.2c-1.7-1.5-4.8-2.8-11-0.7
	c-0.3-0.6-0.9-0.7-1.1-0.4c-0.2,0.2-0.2,0.6,0,1.1c-1.3,0.4-3.4,0.9-6,1.3c-3.4,0.5-3.5,0-4.3,0.4c-1,0.5-2.2,14.3-5.5,22
	c-3.1,7.4-7.7,7.9-7.1,12.2c0.7,5.3,8.3,8.4,12.2,10c6.5,2.6,12.1,2.5,16.4,2.3c5.6-0.2,11.2-0.4,16-4.3
	C223,255.5,226.6,252.6,226.6,248.7z"/>
<path class="st3" d="M238.6,177.9c1,21.3-12.9,46.2-33.8,48c-21.8,1.9-41.3-22-41.3-45.7s19.5-47.7,41.3-45.7
	C224.4,136.3,237.8,158.6,238.6,177.9z"/>
</svg>
